<svg xmlns="http://www.w3.org/2000/svg" width="60.513" height="54" viewBox="0 0 60.513 54">
  <path id="cart-arrow-down-solid" d="M0,2.531A2.532,2.532,0,0,1,2.531,0h7.594a2.54,2.54,0,0,1,2.489,2.058l.158,1.317H32.906V14.143l-2.521-2.436A2.469,2.469,0,0,0,26.895,15.2l6.75,6.75a2.291,2.291,0,0,0,3.491,0l6.75-6.75a2.291,2.291,0,0,0,0-3.491,2.438,2.438,0,0,0-3.491,0l-2.426,2.436V3.375H57.143a3.421,3.421,0,0,1,3.248,4.288L54.7,27.918a3.376,3.376,0,0,1-3.248,2.457H18l.97,5.063H51.469a2.531,2.531,0,0,1,0,5.063H16.78a2.518,2.518,0,0,1-2.394-2.057L8.03,5.063h-5.5A2.532,2.532,0,0,1,0,2.531ZM23.625,48.938a5.063,5.063,0,1,1-5.062-5.062A5.064,5.064,0,0,1,23.625,48.938Zm20.25,0A5.063,5.063,0,1,1,48.938,54,5.064,5.064,0,0,1,43.875,48.938Z" fill="#b169b8"/>
</svg>
