<svg xmlns="http://www.w3.org/2000/svg" xmlns:xlink="http://www.w3.org/1999/xlink" width="316.749" height="47.312" viewBox="0 0 316.749 47.312">
  <defs>
    <clipPath id="clip-path">
      <path id="Path_537" data-name="Path 537" d="M228.473,262.054a17.588,17.588,0,0,0-2.086.079,21.65,21.65,0,0,0-2.387-.074,2.155,2.155,0,0,1,.468.057,6.205,6.205,0,0,1-1.208-.021c.115.025-1.125.1-1.745.156-.778-.05-.51-.138-.588-.195a6.4,6.4,0,0,1-1.514.026,8.128,8.128,0,0,0-1.578.016c.27.025,1.139.085.492.124a1.944,1.944,0,0,1-.238.038h-.569a10.42,10.42,0,0,0-1.772-.077l.278-.142a5.454,5.454,0,0,1-.916.016c-.392-.014-.718-.028-.652.048a5.152,5.152,0,0,0-.627-.016c-.353,0-.676.007-.6-.072-.769.045-1.672.041-2.551.038a19.321,19.321,0,0,0-3.184.132c-.273-.025-.944,0-.807-.068a1.587,1.587,0,0,1,.528-.007.636.636,0,0,0,.266.007c-.246,0-.294-.042-.321-.06-.588.032-1.048.043-.492.152a5.423,5.423,0,0,1-1.413-.083,7.559,7.559,0,0,0-1.591-.091c.075.057-.048.074-.532.067l-.924-.1c-1.069.025-.6.124-.633.219a11.031,11.031,0,0,1-1.534-.081l-.663.111c.424-.074-.515-.048-.775-.072l.267.025a7.392,7.392,0,0,1-1.1,0,6.658,6.658,0,0,1,1.123-.1l-1.136-.078c.131.092-.933.064-1.39.074a1.778,1.778,0,0,1-.537-.037.756.756,0,0,0-.2-.041c-.016.046-.852.007-.449.074l.706-.007a2.793,2.793,0,0,1-1.021.06c-.54-.046.139-.181-.882-.12a4.486,4.486,0,0,1,.524.088l-.957.05-.037-.085c-.134.021-.04.028-.1.042-.286-.092-1.46-.028-1.676-.127l-1.478.067.093,0a8.988,8.988,0,0,1-1.788-.039l.024.021a12.451,12.451,0,0,1-1.417-.057c-.78.064-.264.315-1.123.209-.788,0-1.237-.152-.919-.2-.591.022-1.214.012-1.836,0a23,23,0,0,0-2.5.045,1.711,1.711,0,0,0-.492-.074c-.751.013-1.532,0-2.3-.006a36.3,36.3,0,0,0-3.75.073c.6.036.04.085.027.131a1.726,1.726,0,0,0-.472-.011.376.376,0,0,1-.306-.043c.056-.074,0-.11.585-.142-1.237-.039-3.127-.039-3.814.032.345-.035.08-.06-.195-.081.091.12-.829.138-1.516.1l-.1-.074-.452.078a2.245,2.245,0,0,0-.983-.085l-.2.078a16.612,16.612,0,0,0-2.51-.1l-.633.106c-.329-.011-.89-.074-.3-.106a23.594,23.594,0,0,0-2.6.167c-2.285-.227-5.6-.237-8.256-.22l.08.053a1.106,1.106,0,0,1-.525-.026.6.6,0,0,0-.346-.031c.23.053-.542.113.019.177a11.7,11.7,0,0,1-1.98-.12c-.049-.033.065-.024.187-.015.138.01.285.02.219-.031-.042-.009-.233,0-.469,0a4,4,0,0,1-1.1-.055c-.254.046-.057.127.088.17l-.631-.053c-.759.127,1.737.227.938.386l-.575-.018c-.548.114,1.524.128.078.167-.626-.053-1.163-.212-.6-.258-1.3-.032-.6-.259-2.007-.252-.382.064,1.123.014.856.106a5.761,5.761,0,0,1-1.114,0,6.867,6.867,0,0,0-.8-.022c.652-.039.1-.149-.318-.17-.714.053.463.1-.548.113-.166-.06-1.1-.109-.291-.152a2.071,2.071,0,0,0-.78-.046,3.446,3.446,0,0,1-.824-.025c-.329.1,1.04.234-.067.28.176-.1-1.374-.128-.783-.273-.436.025-.481.1-.163.163a4.68,4.68,0,0,1-.827-.025c-.4-.036-.763-.072-.883.043l-.216-.1-.789.114c-.548,0-1.766-.138-1.715.014-.177-.014-1.425-.007-.941-.113a4.7,4.7,0,0,1,.7-.009,1.457,1.457,0,0,0,.621-.055,5.272,5.272,0,0,1-1.566-.053l-.075.057c-.238-.019-.745-.013-.975-.053.085.029-.015.055-.188.067l-.284-.089c-.563-.022-.611.021-.674.064s-.129.079-.636.068l.8.067a2.6,2.6,0,0,0-.364.024,4.351,4.351,0,0,1-.678.019l-.737-.241a1.272,1.272,0,0,0-.4.014.729.729,0,0,1-.34.007l.661.085a3.734,3.734,0,0,1-1.315.131c-.513-.028-1.3-.145-.492-.188-.4,0-.962.046-.646.1-.9-.028.12-.089-.657-.135-.324.053-1.315.132-1.914.209l.813.131h-.542c.7.11-.356.085.043.2l-1.176-.05c1.077-.184-1.211-.251-.9-.414a2.972,2.972,0,0,0-1.085.111,2.274,2.274,0,0,1-1.39.034c.195-.035-.186-.118.045-.133a4.421,4.421,0,0,0-1.3-.087c.807.068-.869.167.3.266-.075-.053.653-.043.832-.028-.385.063.074.166-.866.166-.577-.014-1.366-.018-1.253-.1.012-.048.232-.045.4-.042s.293.005.107-.043c-.418-.013-.709,0-.933.009a1.947,1.947,0,0,1-.879-.069c.724.014.9-.085.893-.145l-.842-.043.16.064c-.733.025-.788-.01-.894-.046a2.534,2.534,0,0,0-.816-.053l-.612.124a4.219,4.219,0,0,0,.909.041c.463,0,.893-.01.765.086-.354,0-.609-.011-.845-.024a8.3,8.3,0,0,0-1.09-.011l.6.036a4.861,4.861,0,0,1-1.818.1c-.628-.053-.165-.06-.184-.128-1.368-.018-1.772-.085-2.651-.1.179.128-1.558.014-.586.145a14.309,14.309,0,0,1,2.908.053c-.247.074.016.069.38.064a3.337,3.337,0,0,1,.988.067c-1.1,0-1.048.152-1.222.251l-.78-.05c-.131-.092.267-.092.291-.188a23.2,23.2,0,0,1-3.071-.114c-.411.046-.283.138.2.145l-4.391.015c.763-.13-.89-.064-1.018-.119-.085.048-.217.1-.113.151-.957-.067.043.082-.906.082-.957-.064-2.13-.113-3.194-.138-1.331.11-3.373,0-4.565,0-.623.06-.2.191-.88.213-.791,0,.591-.142-.585-.078l.112.025c-.116-.01-.387,0-.712,0a7.972,7.972,0,0,1-1.715-.075l.289.116-.6-.036c-.01.046-.264.089.088.12a17.98,17.98,0,0,1-2.309-.018l.507-.089c-.772-.038-1.4-.027-2.039-.015-.476.009-.96.017-1.515,0l.037.082-.772-.05c.15.066-.287.113-.677.093l1.76.176c.564-.049-.612-.1-.26-.181a6.263,6.263,0,0,1,1.7.032,5.808,5.808,0,0,1-.842-.039c-.153.113.551.109.895.188-.156,0-.356.008-.492.009.431.043.889.052,1.6.055-.431-.037.031-.063.114-.09a6.21,6.21,0,0,0,1.776.09,7.858,7.858,0,0,1,1.585,0c.443.025.916.051,1.39.038a10.976,10.976,0,0,0-1.737-.223c.711-.053.794,0,1.5-.053a6.008,6.008,0,0,0,1.523.241l.048-.074a15.484,15.484,0,0,0,1.916.127c1.833-.032,3.723-.032,5.126-.046l.056-.074c.775.163,2.595.06,3.645.134.791-.033,1.642-.023,2.424-.013a19.177,19.177,0,0,0,2.371-.048c3.156.06,5.908.117,9.177.088l-.551-.11a1.03,1.03,0,0,0,.53-.013,1.4,1.4,0,0,1,.424-.037c-.66.089.794.117,1.2.184a42.58,42.58,0,0,1,4.608.085l.051-.074a40.237,40.237,0,0,0,4.482-.007,4.368,4.368,0,0,1,.962-.1c.882.124,1.341.113,2.635.191.944,0,2.472-.032,3.426-.078,3.549.174,7.176.064,10.859.166l.27-.088c2.035.107,4.338.1,6.507.086,1.639-.008,3.2-.016,4.515.027l-.3-.152c.957-.046,2.181.039,1.938.149.39-.019.857-.01,1.316,0A9.771,9.771,0,0,0,166.3,263c.983-.028,1.2.068,2.015.089,1.761-.054,2.532-.045,4.009-.022-.126-.034-.082-.085.315-.094.687.046,2.536-.039,1.847.145.933-.05,2.012-.034,3.093-.018,1.211.018,2.425.036,3.441-.039-.166.05.321.06.524.092,1.735,0,3.555-.1,4.939-.014.275-.025-.438-.085.265-.088.419.018.01.064.524.088,1.618.055,3.257.016,4.845-.022,1.171-.029,2.313-.057,3.4-.048,3.181.069,6.457.066,9.63.063,1.356,0,2.692,0,3.995,0l-.054-.035c.2.019.4.03.617.036.417.064.767.127,1.019.189a1.145,1.145,0,0,1,.976.966,1.546,1.546,0,0,1-.11.91.941.941,0,0,0-.088.478c.084.823,1.42,1.62,3.7,1.623h.019q.333,0,.692-.024c3.8-.253,4.044-2.525.8-2.666-1.725-.074-2.458.364-2.52.8-.059.415.484.831,1.355.811,1.489-.035,1.029-.792.184-.491-.138.049.968.274-.246.309s-1.914-1.331,1.073-1.332c2.424,0,2.953,1.933-.56,2.174-1.838.126-3.829-.322-3.741-1.331a1.8,1.8,0,0,1,.1-.429,2.3,2.3,0,0,1,.917-.74c3.77-2.027,8.33-.476,8.429,1.184,0,0,.37-2.116,5.266-2.537a1.12,1.12,0,0,0-.26.749c.06.727,1.109,1.429,2.878,1.285,2.478-.2,2.638-2.029.52-2.141-1.125-.06-1.6.293-1.644.645-.038.334.316.667.884.651.972-.028.671-.636.12-.395-.09.039.632.22-.16.248s-1.249-1.054.7-1.07c2-.018,1.843,1.817-.449,2.011-1.2.1-2.5-.413-2.609-1.217-.2-1.4,3.153-2.075,4.438-2.113l-.25,0a8.249,8.249,0,0,0-2.66.379" transform="translate(-86.46 -261.675)" fill="none"/>
    </clipPath>
    <radialGradient id="radial-gradient" cx="0.498" cy="0.5" r="9.134" gradientTransform="matrix(0.039, 0, 0, -0.765, -0.072, 1.765)" gradientUnits="objectBoundingBox">
      <stop offset="0" stop-color="#f5ddc8"/>
      <stop offset="0.18" stop-color="#f5ddc8"/>
      <stop offset="0.59" stop-color="#edbf6c"/>
      <stop offset="1" stop-color="#c4630f"/>
    </radialGradient>
    <clipPath id="clip-path-2">
      <path id="Path_538" data-name="Path 538" d="M767.1,272.7l.457-.007-.532-.008a.666.666,0,0,0,.075.016" transform="translate(-767.027 -272.684)" fill="none"/>
    </clipPath>
    <radialGradient id="radial-gradient-2" cx="0.5" cy="0.5" r="12.123" gradientTransform="matrix(0.029, 0, 0, -0.765, -176.704, 481.319)" xlink:href="#radial-gradient"/>
    <clipPath id="clip-path-3">
      <path id="Path_539" data-name="Path 539" d="M433.377,262.685h.4c.281-.025-.019-.067-.256-.071Z" transform="translate(-433.377 -262.614)" fill="none"/>
    </clipPath>
    <radialGradient id="radial-gradient-3" cx="0.377" cy="0.5" r="2.578" gradientTransform="matrix(0.104, 0, 0, -0.765, -72.165, 137.195)" xlink:href="#radial-gradient"/>
    <clipPath id="clip-path-4">
      <path id="Path_540" data-name="Path 540" d="M1274.06,261.678c1.284.037,4.635.711,4.437,2.113-.113.8-1.41,1.318-2.609,1.217-2.292-.194-2.448-2.029-.449-2.011,1.949.017,1.5,1.1.7,1.07s-.071-.209-.16-.248c-.551-.242-.852.366.12.395.568.016.922-.317.884-.651-.041-.352-.519-.7-1.644-.645-2.118.113-1.958,1.938.52,2.141,1.769.145,2.818-.558,2.878-1.285a1.12,1.12,0,0,0-.26-.749c4.9.421,5.266,2.537,5.266,2.537.1-1.659,4.658-3.211,8.429-1.184a2.3,2.3,0,0,1,.917.74,1.8,1.8,0,0,1,.1.429c.088,1.009-1.9,1.457-3.741,1.331-3.513-.241-2.984-2.175-.56-2.174,2.987,0,2.3,1.368,1.073,1.332s-.108-.26-.246-.309c-.845-.3-1.3.456.184.491.871.02,1.414-.4,1.355-.811-.062-.439-.8-.877-2.52-.8-3.247.14-3,2.413.8,2.666q.359.024.692.024h.019c2.28,0,3.617-.8,3.7-1.623a.938.938,0,0,0-.088-.478,1.548,1.548,0,0,1-.11-.91,1.145,1.145,0,0,1,.976-.966c.252-.062.6-.126,1.019-.189.213-.006.42-.017.617-.036l-.054.035c1.3,0,2.639,0,3.995,0,3.173,0,6.449.007,9.63-.063,1.084-.009,2.227.02,3.4.048,1.587.039,3.227.078,4.845.022.513-.025.1-.071.524-.088.7,0-.01.064.265.088,1.384-.085,3.2.014,4.939.014.2-.032.69-.043.524-.092,1.016.075,2.23.057,3.441.039,1.081-.016,2.161-.032,3.094.018-.69-.184,1.16-.1,1.847-.145.4.009.441.06.315.094,1.477-.023,2.248-.032,4.009.022.818-.021,1.032-.117,2.015-.089a9.77,9.77,0,0,0,1.688.048c.458-.009.926-.017,1.316,0-.243-.11.981-.195,1.938-.149l-.3.152c1.313-.043,2.876-.035,4.515-.027,2.169.01,4.472.021,6.507-.086l.27.088c3.683-.1,7.31.007,10.859-.166.954.046,2.483.078,3.427.078,1.293-.078,1.753-.067,2.635-.191a4.368,4.368,0,0,1,.962.1,40.236,40.236,0,0,0,4.482.007l.051.074a42.578,42.578,0,0,1,4.608-.085c.406-.067,1.86-.1,1.2-.184a1.4,1.4,0,0,1,.423.037,1.031,1.031,0,0,0,.531.013l-.551.11c3.269.029,6.021-.028,9.177-.088a19.173,19.173,0,0,0,2.371.048c.782-.01,1.633-.02,2.424.013,1.05-.074,2.87.028,3.645-.134l.056.074c1.4.014,3.293.014,5.126.046a15.485,15.485,0,0,0,1.916-.127l.048.074a6,6,0,0,0,1.523-.241c.711.053.794,0,1.5.053a10.974,10.974,0,0,0-1.737.223c.473.014.947-.012,1.389-.038a7.861,7.861,0,0,1,1.586,0,6.211,6.211,0,0,0,1.776-.09c.083.027.545.053.114.09.71,0,1.168-.013,1.6-.055-.136,0-.336-.013-.492-.009.344-.078,1.048-.074.9-.188a5.809,5.809,0,0,1-.842.039,6.263,6.263,0,0,1,1.7-.032c.352.082-.823.131-.26.181l1.76-.176c-.39.02-.827-.027-.677-.093l-.772.05.037-.082c-.556.012-1.039,0-1.515,0-.64-.012-1.267-.023-2.039.015l.507.089a17.977,17.977,0,0,1-2.309.018c.352-.032.1-.074.088-.12l-.6.036.289-.116a7.974,7.974,0,0,1-1.715.075c-.325-.006-.6-.012-.712,0l.112-.025c-1.176-.063.206.078-.585.078-.677-.021-.257-.152-.88-.213-1.192,0-3.234.114-4.565,0-1.063.025-2.236.074-3.194.138-.949,0,.051-.149-.906-.082.1-.05-.028-.1-.113-.151-.127.055-1.781-.011-1.018.119l-4.391-.015c.484-.007.612-.1.2-.145a23.2,23.2,0,0,1-3.071.114c.024.1.423.1.291.188l-.78.05c-.174-.1-.123-.248-1.222-.251a3.335,3.335,0,0,1,.988-.067c.364,0,.627.01.38-.064a14.308,14.308,0,0,1,2.908-.053c.973-.131-.765-.018-.586-.145-.879.011-1.282.078-2.651.1-.019.067.443.074-.184.128a4.86,4.86,0,0,1-1.818-.1l.6-.036a8.309,8.309,0,0,0-1.09.011c-.235.014-.491.027-.844.024-.129-.1.3-.091.764-.086a4.221,4.221,0,0,0,.909-.041l-.612-.124a2.534,2.534,0,0,0-.816.053c-.106.035-.161.071-.894.046l.16-.064-.842.043c-.01.06.169.159.893.145a1.947,1.947,0,0,1-.879.069c-.224-.011-.515-.022-.933-.009-.186.048-.064.045.107.043s.391-.005.4.042c.112.085-.676.089-1.254.1-.94,0-.481-.1-.866-.166.179-.014.906-.025.832.028,1.165-.1-.511-.2.3-.266a4.421,4.421,0,0,0-1.3.087c.231.015-.15.1.045.133a2.275,2.275,0,0,1-1.391-.034,2.971,2.971,0,0,0-1.084-.111c.313.163-1.975.23-.9.414l-1.176.05c.4-.114-.657-.089.043-.2h-.542l.813-.131c-.6-.078-1.591-.156-1.914-.209-.777.046.246.106-.657.135.315-.057-.246-.106-.646-.1.807.043.021.159-.492.188a3.734,3.734,0,0,1-1.315-.131l.661-.085a.73.73,0,0,1-.341-.007,1.27,1.27,0,0,0-.4-.014l-.737.241a4.354,4.354,0,0,1-.678-.019,2.593,2.593,0,0,0-.364-.024l.8-.067c-.506.012-.577-.028-.635-.068s-.111-.086-.674-.064l-.283.089c-.172-.012-.272-.038-.188-.067-.23.04-.736.034-.975.053l-.075-.057a5.273,5.273,0,0,1-1.566.053,1.456,1.456,0,0,0,.621.055,4.7,4.7,0,0,1,.7.009c.484.106-.764.1-.941.113.051-.152-1.167-.014-1.715-.014l-.789-.114-.216.1c-.12-.115-.481-.079-.883-.043a4.68,4.68,0,0,1-.827.025c.318-.06.272-.138-.163-.163.591.145-.959.177-.783.273-1.106-.046.262-.181-.067-.28a3.446,3.446,0,0,1-.823.025,2.071,2.071,0,0,0-.78.046c.8.043-.125.092-.291.152-1.01-.011.166-.06-.548-.113-.419.021-.97.131-.318.17a6.864,6.864,0,0,0-.8.022,5.76,5.76,0,0,1-1.114,0c-.267-.092,1.238-.042.855-.106-1.4-.007-.7.22-2.007.252.558.046.021.205-.6.258-1.446-.039.626-.053.078-.167l-.575.018c-.8-.159,1.7-.259.938-.386l-.631.053c.145-.043.342-.124.088-.17a4,4,0,0,1-1.1.055c-.236-.005-.427-.01-.469,0-.067.051.081.041.219.031.122-.009.236-.018.187.015a11.7,11.7,0,0,1-1.98.12c.561-.064-.211-.124.019-.177a.6.6,0,0,0-.346.031,1.106,1.106,0,0,1-.525.026l.08-.053c-2.656-.018-5.97-.007-8.256.22a23.6,23.6,0,0,0-2.6-.167c.585.032.024.1-.3.106l-.633-.106a16.613,16.613,0,0,0-2.51.1l-.2-.078a2.247,2.247,0,0,0-.983.085l-.452-.078-.1.074c-.687.042-1.606.025-1.516-.1-.275.021-.54.046-.195.081-.687-.071-2.576-.071-3.814-.032.585.032.529.068.585.142a.375.375,0,0,1-.306.043,1.726,1.726,0,0,0-.472.011c-.013-.046-.577-.1.027-.131a36.3,36.3,0,0,0-3.75-.073c-.769.009-1.55.019-2.3.006a1.71,1.71,0,0,0-.492.074,23,23,0,0,0-2.5-.045c-.622.011-1.245.021-1.836,0,.318.049-.131.2-.919.2-.858.106-.342-.145-1.122-.209a12.449,12.449,0,0,1-1.416.057l.024-.021a8.989,8.989,0,0,1-1.788.039l.093,0-1.478-.067c-.216.1-1.39.035-1.676.127-.061-.014.032-.021-.1-.042l-.037.085-.957-.05a4.484,4.484,0,0,1,.524-.088c-1.021-.06-.342.074-.882.12a2.8,2.8,0,0,1-1.021-.06l.706.007c.4-.067-.433-.028-.449-.074a.757.757,0,0,0-.2.041,1.777,1.777,0,0,1-.537.037c-.457-.011-1.521.018-1.39-.074l-1.136.078a6.659,6.659,0,0,1,1.123.1,7.391,7.391,0,0,1-1.1,0l.267-.025c-.261.024-1.2,0-.776.072l-.662-.111a11.029,11.029,0,0,1-1.534.081c-.029-.1.436-.195-.633-.219l-.924.1c-.484.007-.607-.01-.532-.067a7.558,7.558,0,0,0-1.591.091,5.423,5.423,0,0,1-1.413.083c.555-.11.1-.12-.492-.152-.026.018-.074.057-.321.06a.635.635,0,0,0,.266-.007,1.586,1.586,0,0,1,.528.007c.136.068-.535.043-.807.068a19.324,19.324,0,0,0-3.184-.132c-.879,0-1.782.007-2.551-.038.076.079-.248.076-.6.072a5.152,5.152,0,0,0-.627.016c.066-.076-.26-.062-.652-.048a5.452,5.452,0,0,1-.916-.016l.278.142a10.419,10.419,0,0,0-1.772.077h-.569a1.948,1.948,0,0,1-.238-.038c-.647-.039.222-.1.492-.124a8.131,8.131,0,0,0-1.578-.016,6.4,6.4,0,0,1-1.513-.026c-.078.057.19.145-.588.195-.62-.057-1.86-.131-1.746-.156a6.2,6.2,0,0,1-1.208.021,2.154,2.154,0,0,1,.468-.057,21.652,21.652,0,0,0-2.387.074,17.585,17.585,0,0,0-2.086-.079,8.249,8.249,0,0,0-2.66-.379l-.25,0" transform="translate(-1273.866 -261.675)" fill="none"/>
    </clipPath>
    <radialGradient id="radial-gradient-4" cx="0.502" cy="0.5" r="9.134" gradientTransform="translate(-1.141 1.765) rotate(180) scale(0.039 0.765)" xlink:href="#radial-gradient"/>
    <clipPath id="clip-path-5">
      <path id="Path_541" data-name="Path 541" d="M1739.275,272.692l.457.007a.651.651,0,0,0,.075-.016l-.531.008" transform="translate(-1739.275 -272.684)" fill="none"/>
    </clipPath>
    <radialGradient id="radial-gradient-5" cx="0.5" cy="0.5" r="12.123" gradientTransform="translate(-424.784 481.319) rotate(180) scale(0.029 0.765)" xlink:href="#radial-gradient"/>
    <clipPath id="clip-path-6">
      <path id="Path_542" data-name="Path 542" d="M2073.2,262.685h.4l-.142-.071c-.238,0-.537.046-.256.071" transform="translate(-2073.084 -262.614)" fill="none"/>
    </clipPath>
    <radialGradient id="radial-gradient-6" cx="0.623" cy="0.5" r="2.578" gradientTransform="translate(-425.272 137.195) rotate(180) scale(0.104 0.765)" xlink:href="#radial-gradient"/>
    <clipPath id="clip-path-7">
      <path id="Path_543" data-name="Path 543" d="M8.373,28.944a7.687,7.687,0,0,0,1.85-.393l.092,0-.043-.015.043-.015-.092,0a7.687,7.687,0,0,0-1.85-.393c.8-.1.888,0,1.683-.1a4.278,4.278,0,0,0,1.7.46l.054-.142a7.779,7.779,0,0,1,1.112.194,7.779,7.779,0,0,1-1.112.194l-.054-.142a4.28,4.28,0,0,0-1.7.46c-.8-.1-.888,0-1.683-.1m298.32-.923c.8.1.888,0,1.683.1a7.69,7.69,0,0,0-1.85.393l-.092,0,.043.015-.043.015.092,0a7.69,7.69,0,0,0,1.85.393c-.8.1-.888,0-1.683.1a4.279,4.279,0,0,0-1.7-.46l-.054.142a7.78,7.78,0,0,1-1.112-.194,7.781,7.781,0,0,1,1.112-.194l.054.142a4.277,4.277,0,0,0,1.7-.46M49.144,22.347c-.043-4.169,3.407-7.366,12.709-7.279,8.867.083,18.522,6.509,19.641,7.275a10.126,10.126,0,0,0-4.21-1.448c-2.954-.208-5.592,1.108-5.409,2.6a1.142,1.142,0,0,0-.005.121,1.842,1.842,0,0,0,2.075,1.49c1.127-.026,2.025-.735,2.006-1.584a1.573,1.573,0,0,0-1.2-1.362c1.277-.612,4.11-1.076,9.319,2.035l-.04-.036A15.3,15.3,0,0,0,85.6,25.183c1.7.624,3.836,1.3,5.849,1.915l-.262.077c-.3-.047-.329-.3-1.1-.162l-.222.148a10.964,10.964,0,0,0-2.806-.189l-.708.2c-.367-.02-1-.142-.341-.2a15.7,15.7,0,0,0-2.91.318,58.7,58.7,0,0,0-9.233-.419l.089.1c-.415.053-.513,0-.587-.049s-.119-.095-.387-.059c.257.1-.607.216.021.338a7.784,7.784,0,0,1-2.215-.23c-.055-.063.073-.046.209-.029.154.019.319.038.245-.059a3.276,3.276,0,0,0-.525,0c-.477.018-1.118.035-1.235-.1-.284.088-.063.243.1.324l-.706-.1c-.848.243,1.943.433,1.049.737l-.643-.034c-.613.217,1.7.244.087.318-.7-.1-1.3-.405-.676-.493-1.458-.061-.675-.494-2.245-.481-.427.122,1.255.027.957.2a3.791,3.791,0,0,1-1.246,0,4.5,4.5,0,0,0-.894-.042c.729-.075.113-.285-.356-.325-.8.1.517.2-.613.216-.185-.115-1.225-.209-.326-.291a1.4,1.4,0,0,0-.873-.088,2.277,2.277,0,0,1-.921-.047c-.368.19,1.163.447-.075.535.2-.183-1.536-.244-.876-.521-.487.047-.538.2-.183.311a3.088,3.088,0,0,1-.925-.048c-.45-.069-.853-.138-.988.082l-.242-.2-.882.217c-.117,0-.261-.01-.418-.023a34.557,34.557,0,0,0,5.3-2.586c1.483-.784,2.56-.283,2.773.884s-1.67.723-1.67.723a2.273,2.273,0,0,0,2.139.553c1.35-.186,1.817-2.172-.21-3.171s-4.7,1.082-4.7,1.082c.184-5.112-2.032-6.048-4.6-5.787-2.351.242-3.417,1.546-3.055,3.217.318,1.47,2.343,1.214,2.343,1.214,2.459-.637,1.142-2.1,1.142-2.1-1.376-.869-2.668.725-2.668.725-.843-1.544,1.083-2.155,1.083-2.155,3.893-1.02,4.522,1.972,4.522,1.972a3.47,3.47,0,0,1-2.51,4.448,13.109,13.109,0,0,1-3.151.434c-5.033,0-5.189-4.14-5.189-4.14M254.9,15.068c9.3-.087,12.753,3.11,12.709,7.279,0,0-.216,5.733-8.34,3.707a3.47,3.47,0,0,1-2.51-4.448s.629-2.991,4.522-1.972c0,0,1.926.611,1.083,2.155,0,0-1.292-1.594-2.668-.725,0,0-1.317,1.465,1.142,2.1,0,0,2.025.256,2.343-1.214.363-1.671-.7-2.976-3.055-3.217-2.571-.261-4.787.675-4.6,5.787,0,0-2.673-2.084-4.7-1.082s-1.559,2.985-.21,3.171a2.273,2.273,0,0,0,2.139-.553s-1.885.443-1.67-.723,1.291-1.668,2.773-.884a34.554,34.554,0,0,0,5.3,2.586c-.156.014-.3.023-.418.023l-.882-.217-.242.2c-.134-.22-.537-.151-.988-.082a3.088,3.088,0,0,1-.925.048c.356-.115.3-.264-.182-.311.661.277-1.073.338-.876.521-1.237-.088.293-.345-.075-.535a2.28,2.28,0,0,1-.921.047,1.394,1.394,0,0,0-.872.088c.9.082-.14.176-.326.291-1.13-.02.185-.115-.613-.216-.469.04-1.085.25-.356.325a4.5,4.5,0,0,0-.894.042,3.79,3.79,0,0,1-1.246,0c-.3-.176,1.384-.081.957-.2-1.569-.013-.787.42-2.245.481.624.088.024.392-.676.493-1.617-.074.7-.1.087-.318l-.643.034c-.894-.3,1.9-.494,1.049-.737l-.706.1c.162-.081.383-.236.1-.324-.117.139-.758.122-1.235.1a3.274,3.274,0,0,0-.525,0c-.075.1.091.078.245.059.136-.017.264-.034.21.029a7.785,7.785,0,0,1-2.215.23c.627-.122-.236-.237.021-.338-.268-.036-.318.011-.387.059s-.172.1-.587.049l.089-.1a58.7,58.7,0,0,0-9.232.419,15.7,15.7,0,0,0-2.911-.318c.654.061.026.183-.341.2l-.708-.2a10.963,10.963,0,0,0-2.806.189l-.222-.148c-.771-.136-.8.115-1.1.162l-.262-.077c2.013-.61,4.146-1.291,5.849-1.915a15.314,15.314,0,0,0,1.577-1.029l-.04.036c5.208-3.111,8.042-2.647,9.319-2.035a1.573,1.573,0,0,0-1.2,1.362c-.019.849.879,1.558,2.006,1.584a1.842,1.842,0,0,0,2.075-1.49,1.177,1.177,0,0,0-.005-.121c.183-1.488-2.455-2.8-5.409-2.6a10.127,10.127,0,0,0-4.211,1.448c1.12-.766,10.774-7.192,19.641-7.275M24.061,11.833c1.382-2.355,6.858-3.78,10.133-4.438a7.66,7.66,0,0,0-1.983,1.125s-2.046,1.559-1.514,3.637c.244.942.529,1.535.363,2.08a23.042,23.042,0,0,0-3.667.448c1.285-1.34-1.475-1.946-1.475-1.946,1.7.75-.088,1.736-.088,1.736a3.779,3.779,0,0,1-.568.047c-2.281,0-1.2-2.688-1.2-2.688m261.627,2.4c-.166-.544.119-1.138.363-2.08.532-2.077-1.514-3.637-1.514-3.637a7.658,7.658,0,0,0-1.983-1.125c3.276.658,8.751,2.083,10.134,4.438,0,0,1.247,3.1-1.769,2.641,0,0-1.789-.986-.088-1.736,0,0-2.76.606-1.475,1.946a23.045,23.045,0,0,0-3.667-.448M33.327,9.563c.3-.977,2.677-2.228,6.365-2.452,15.333,1.046,22.625,5.438,23.654,6.107a52.146,52.146,0,0,0-8.723-.366c-3.675-.9-8.009.72-13.082-4.742a15.989,15.989,0,0,0,3.253,4.113s-2.295.232-2.831,2.051c0,0,1.3-2.634,12.163-1.394a31.781,31.781,0,0,0-11.751,3c-4.674,2.1-8.214,4.753-14.487,6.645-9.394,2.818-14.256,1.448-12.218-1.847,1.253-2.036,5.277-4.121,9.668-5.329a3.829,3.829,0,0,0,1.778-.411l.041-.033a27.213,27.213,0,0,1,3.863-.552c-.169.394-.6.773-1.48,1.253a3,3,0,0,0,2.61-1.3c.414,0,.819,0,1.213.029-.369-.05-.755-.081-1.155-.1A6.759,6.759,0,0,0,32.8,13.4a3.191,3.191,0,0,0,.131-2.16s.879,1.96,4.08,1.807c2.8-.129,3.972-1.545,4.114-2.114.22-.861-.46-1.914-2.539-2.153a3.834,3.834,0,0,0-3.309,1.129s-.6,1.676,1.554,1.425c0,0,2.12-.462.658-1.332,0,0,1.9-.793,2.25.789,0,0,.048,1.345-2.225,1.778a4.049,4.049,0,0,1-.755.072c-2.188,0-3.818-1.81-3.433-3.081M277.057,7.111c3.688.224,6.069,1.475,6.365,2.452.428,1.414-1.637,3.494-4.188,3.01-2.272-.433-2.224-1.778-2.224-1.778.353-1.582,2.25-.789,2.25-.789-1.461.87.658,1.332.658,1.332,2.149.251,1.554-1.425,1.554-1.425a3.834,3.834,0,0,0-3.309-1.129c-2.079.238-2.76,1.292-2.539,2.153.142.569,1.316,1.985,4.114,2.114,3.2.153,4.08-1.807,4.08-1.807a3.19,3.19,0,0,0,.131,2.16,6.752,6.752,0,0,0,.594.832c-.4.015-.786.047-1.155.1.394-.024.8-.033,1.213-.029a3,3,0,0,0,2.61,1.3c-.882-.48-1.311-.859-1.48-1.253a27.214,27.214,0,0,1,3.863.552l.041.033a3.829,3.829,0,0,0,1.778.411c4.391,1.208,8.416,3.292,9.669,5.329,2.037,3.295-2.824,4.666-12.218,1.847-6.273-1.892-9.813-4.541-14.487-6.645A31.77,31.77,0,0,0,262.959,12.9c10.55-1.147,11.827,1.431,11.827,1.431-.537-1.819-2.832-2.051-2.832-2.051a15.989,15.989,0,0,0,3.253-4.113c-4.978,5.359-9.245,3.9-12.876,4.693a51.694,51.694,0,0,0-8.929.354c1.029-.668,8.321-5.061,23.654-6.107m-249-.564a52.906,52.906,0,0,1-16.643,4.036C23.278,5.522,28.054,6.547,28.054,6.547m260.639,0s4.776-1.025,16.643,4.036a52.906,52.906,0,0,1-16.643-4.036M265.159,8.335a50.254,50.254,0,0,0-10.13,3.008l-2.624,1.2c1.015-1.359,3.366-3.572,8.225-4.339a11.381,11.381,0,0,0-5.6.028s.535-3.887-4.073-5.621c0,0,5.044,6.273-1.241,11.169-1.226.568-2.518,1.173-3.827,1.8,1.67-1.578,3.318-3.735,3.05-5.945,0,0-.51-2.743-4.207-2.26,0,0-2.215.257-1.45,1.949.668,1.474,3.638,2.16,4.63.628a10.167,10.167,0,0,1-6.887,7.859s-.4-4.04,4.63-5.9a4.526,4.526,0,0,0-3.936.2,14.262,14.262,0,0,0-6.961-4.461s8.365,5.988,4.2,11.382a46.449,46.449,0,0,0-6.125,3.693l-1.462,1.246s4.526-4.365,3.555-9.534l-.009-.049c-.575-2.956-3.444-5.432-7.219-6.334-4.131-.988-8.468.124-10.61,2.937-1.891,2.484-2.037,6.337,1.632,8.084,0,0,3.786,1.536,6.1-.353,2.213-1.812,1.164-4.136.8-4.253,0,0,2.234-2.044,3.217-1.577,1,.474.033,2.2.033,2.2s2.9-3.064-.433-3.118c-1.511-.024-3.354,1.582-3.509,1.788,0,0-2.166-1.767-4.267-.625a1.786,1.786,0,0,0-1.309,1.542,1.412,1.412,0,0,0,.207.754c.016.04.033.08.053.119a1.472,1.472,0,0,0,.961.72,2.969,2.969,0,0,0,1.088.229,2.12,2.12,0,0,0,2.388-1.715,1.473,1.473,0,0,0-.37-.987,2.727,2.727,0,0,1,1.6,1.685c.321,2.107-1.919,3.932-4.82,3.147a4.737,4.737,0,0,1-3.441-5.032c.144-2.756,3.491-4.462,6.842-4.841a11.065,11.065,0,0,1,5.959,1.044c3.4,1.981,7.921,6.1.517,13.6a17.082,17.082,0,0,1-3.593,1.823,6.887,6.887,0,0,0,2.873-1.944c1.04-1.426.81-3.1-.32-3.759a2.1,2.1,0,0,0-1.194-.386,1.592,1.592,0,0,0-1.793,1.288c-.017.734.76,1.347,1.734,1.369a2.128,2.128,0,0,0,1.137-.283c.143.965-.464,2.693-5.2,4.592a17.552,17.552,0,0,0,1.984-.577,41.11,41.11,0,0,1-5.125,1.5c-.716,0-1.469.017-2.08.05.628.058.6.123.647.254l-.433.083a1.149,1.149,0,0,0-.43.035c-.015-.088-.645-.182.03-.25a23.8,23.8,0,0,0-4.194-.14c-.86.018-1.733.036-2.572.011-.469.04-.326.081-.55.142a15.09,15.09,0,0,0-2.8-.086c-.7.02-1.393.04-2.053,0,.356.094-.146.385-1.028.385-.96.2-.382-.277-1.255-.4a8.169,8.169,0,0,1-1.584.108l.027-.04a5.923,5.923,0,0,1-2,.074l.1-.007-1.653-.128c-.242.189-1.554.068-1.874.243-.069-.027.036-.04-.113-.081l-.042.163-1.07-.1a3.143,3.143,0,0,1,.586-.169c-1.142-.115-.382.142-.987.23a1.89,1.89,0,0,1-1.142-.115l.789.013c.451-.128-.484-.054-.5-.142a.559.559,0,0,0-.228.078,1.2,1.2,0,0,1-.6.071c-.511-.02-1.7.034-1.554-.142l-1.27.149a4.491,4.491,0,0,1,1.255.189,4.827,4.827,0,0,1-1.229,0l.3-.047c-.291.046-1.34,0-.867.137l-.741-.212a7.313,7.313,0,0,1-1.716.155c-.032-.183.487-.372-.708-.419l-1.034.182c-.541.014-.679-.02-.6-.128a5.025,5.025,0,0,0-1.779.173,3.621,3.621,0,0,1-1.58.158c.621-.209.108-.23-.55-.291-.029.034-.083.109-.359.115a.424.424,0,0,0,.3-.013,1.055,1.055,0,0,1,.591.013c.152.129-.6.082-.9.129a12.782,12.782,0,0,0-3.561-.253,28.392,28.392,0,0,1-2.853-.072c.085.152-.277.145-.671.138a3.373,3.373,0,0,0-.7.031c.074-.145-.291-.118-.729-.092a3.581,3.581,0,0,1-1.025-.029l.311.27a4.879,4.879,0,0,0-1.492.071,2.556,2.556,0,0,1-1.392,0c-.724-.075.248-.19.55-.237a5.34,5.34,0,0,0-1.765-.031,4.23,4.23,0,0,1-1.692-.05c-.087.108.212.277-.657.372a18.648,18.648,0,0,1-1.952-.3,4.086,4.086,0,0,1-1.351.041c.054-.068.326-.075.523-.109a14.235,14.235,0,0,0-2.669.142,5.324,5.324,0,0,0-1.324-.131l.013-.024c-.192.006-.388.009-.581.013s-.389-.007-.581-.013l.013.024a5.326,5.326,0,0,0-1.324.131,14.235,14.235,0,0,0-2.669-.142c.2.034.47.041.523.109a4.086,4.086,0,0,1-1.351-.041,18.649,18.649,0,0,1-1.952.3c-.87-.1-.571-.264-.657-.372a4.23,4.23,0,0,1-1.693.05,5.339,5.339,0,0,0-1.765.031c.3.047,1.273.162.55.237a2.556,2.556,0,0,1-1.392,0,4.879,4.879,0,0,0-1.492-.071l.311-.27a3.581,3.581,0,0,1-1.025.029c-.438-.027-.8-.053-.73.092a3.382,3.382,0,0,0-.7-.031c-.394.007-.756.014-.671-.138a28.4,28.4,0,0,1-2.853.072,12.779,12.779,0,0,0-3.561.253c-.3-.047-1.055,0-.9-.129a1.054,1.054,0,0,1,.591-.013.425.425,0,0,0,.3.013c-.276-.006-.329-.081-.359-.115-.658.061-1.172.082-.55.291a3.622,3.622,0,0,1-1.58-.158,5.024,5.024,0,0,0-1.779-.173c.084.108-.054.142-.6.128l-1.034-.182c-1.2.047-.676.236-.708.419a7.312,7.312,0,0,1-1.716-.155l-.74.212c.473-.142-.576-.091-.868-.137l.3.047a4.827,4.827,0,0,1-1.229,0,4.492,4.492,0,0,1,1.255-.189l-1.27-.149c.146.176-1.043.122-1.554.142a1.2,1.2,0,0,1-.6-.071.559.559,0,0,0-.228-.078c-.018.088-.953.014-.5.142l.789-.013a1.89,1.89,0,0,1-1.142.115c-.6-.088.155-.345-.987-.23a3.143,3.143,0,0,1,.586.169l-1.07.1-.042-.163c-.149.041-.045.054-.113.081-.32-.175-1.633-.054-1.874-.243l-1.653.128.1.007a5.923,5.923,0,0,1-2-.074l.027.04a8.169,8.169,0,0,1-1.584-.108c-.873.122-.3.6-1.255.4-.881,0-1.383-.291-1.028-.385-.66.042-1.358.022-2.053,0a15.087,15.087,0,0,0-2.8.086c-.224-.061-.081-.1-.55-.142-.84.024-1.712.006-2.573-.011a23.8,23.8,0,0,0-4.194.14c.675.068.045.162.03.25a1.149,1.149,0,0,0-.43-.035l-.433-.083c.051-.131.02-.2.647-.254-.611-.033-1.363-.051-2.08-.05a41.123,41.123,0,0,1-5.125-1.5,17.558,17.558,0,0,0,1.984.577c-4.737-1.9-5.345-3.626-5.2-4.592A2.128,2.128,0,0,0,88.7,21.8c.974-.022,1.751-.636,1.734-1.369a1.592,1.592,0,0,0-1.793-1.288,2.1,2.1,0,0,0-1.194.386c-1.13.662-1.36,2.333-.32,3.759A6.887,6.887,0,0,0,90,25.236a17.082,17.082,0,0,1-3.593-1.823c-7.4-7.506-2.878-11.623.517-13.6a11.065,11.065,0,0,1,5.959-1.044c3.351.379,6.7,2.085,6.842,4.841a4.737,4.737,0,0,1-3.441,5.032c-2.9.785-5.141-1.04-4.82-3.147a2.727,2.727,0,0,1,1.6-1.685,1.473,1.473,0,0,0-.37.987,2.12,2.12,0,0,0,2.387,1.715,2.969,2.969,0,0,0,1.088-.229,1.472,1.472,0,0,0,.961-.72c.02-.04.037-.08.053-.119a1.412,1.412,0,0,0,.207-.754,1.786,1.786,0,0,0-1.309-1.542c-2.1-1.141-4.267.625-4.267.625-.156-.206-2-1.812-3.509-1.788-3.328.054-.433,3.118-.433,3.118s-.967-1.728.033-2.2c.984-.467,3.217,1.577,3.217,1.577-.366.117-1.414,2.44.8,4.253,2.312,1.889,6.1.353,6.1.353,3.669-1.747,3.523-5.6,1.632-8.084-2.142-2.813-6.479-3.925-10.61-2.937-3.775.9-6.644,3.378-7.219,6.334l-.009.049c-.97,5.169,3.555,9.534,3.555,9.534l-1.462-1.246a46.459,46.459,0,0,0-6.125-3.693c-4.16-5.395,4.2-11.382,4.2-11.382a14.261,14.261,0,0,0-6.961,4.461,4.526,4.526,0,0,0-3.936-.2c5.03,1.863,4.63,5.9,4.63,5.9a10.167,10.167,0,0,1-6.887-7.859c.991,1.533,3.962.846,4.63-.628.765-1.693-1.45-1.949-1.45-1.949-3.7-.483-4.207,2.26-4.207,2.26-.268,2.21,1.38,4.367,3.05,5.945-1.308-.624-2.6-1.229-3.827-1.8-6.285-4.9-1.241-11.169-1.241-11.169-4.608,1.734-4.073,5.621-4.073,5.621a11.38,11.38,0,0,0-5.6-.028c4.859.767,7.21,2.98,8.225,4.339-.971-.445-1.858-.85-2.624-1.2A50.256,50.256,0,0,0,51.59,8.335C46.463,4.717,50.141,0,50.141,0c-3.384,1.274-2.991,4.127-2.991,4.127a8.357,8.357,0,0,0-4.109-.021c4.507.711,6.075,3.117,6.44,3.812a161.426,161.426,0,0,0-17.355-2.18A41.118,41.118,0,0,0,10.6,10.075,6.644,6.644,0,0,1,5.66,7.881,1.416,1.416,0,0,0,5.6,5.057,1.477,1.477,0,0,0,3.979,6.344a1.38,1.38,0,0,0,.4,1.1c1.105,2.114,5.273,3.434,5.273,3.434a15.739,15.739,0,0,0-3.857,3.9,14.263,14.263,0,0,0-2.9,6.922c-.035,4.282,3.662,3.937,3.662,3.937,2.314.127,2.469-1.391,2.469-1.391-.153-1.8-2.134-.636-2.134-.636-.676.773.377,1.559.377,1.559-5.138.126-3.307-5.042-3.307-5.042,2.583-6.872,6.851-8.982,6.851-8.982,7.69.3,13.128-2.592,15.693-3.4A25.361,25.361,0,0,1,32.72,6.9L31.172,7.3c-10.231,1.826-8.321,6.587-8.321,6.587A3.076,3.076,0,0,0,24.88,15.3c-4.313,1.247-8.441,3.418-10.039,5.644-2.544,3.485,2.55,5.438,13.418,1.894,7.659-2.5,10.978-4.9,15.176-6.95,4.168-1.962,9.208-3.571,19.918-2.664.081.053.121.081.121.081s-13.513-1.862-20.925,6.038c-5.574,5.941-9.31,6.119-9.31,6.119,3.813.849,8.817-3.866,8.817-3.866a4.186,4.186,0,0,0,1.671,1.886c-.342-2.76.741-6.458,7.957-8.524a30.788,30.788,0,0,1,14.564-.12c-5.577-1-8.592-.371-8.592-.371-5.81.884-8.686,3.005-9.5,7.082-.586,2.951,1.51,4.549,3.716,5.319-.075,0-.162,0-.268,0l.448.064q.121.04.241.076a3.506,3.506,0,0,1-.959.07l-.824-.461a.853.853,0,0,0-.452.028c-.077.032-.122.065-.381.013l.74.163c.129.048-.577.251-1.47.251-.574-.054-1.453-.278-.55-.359-.448-.007-1.075.088-.723.2-1.011-.054.134-.169-.735-.257-.362.1-1.471.251-2.14.4l.909.251H45.1c.783.21-.4.162.048.379l-1.316-.095c1.2-.352-1.354-.48-1-.792A2.055,2.055,0,0,0,41.618,27c-.333.178-.537.356-1.555.065.218-.067-.208-.226.05-.254a2.978,2.978,0,0,0-1.452-.166c.9.129-.971.318.332.508-.084-.1.73-.081.93-.054-.43.121.083.318-.968.318-.646-.027-1.527-.034-1.4-.2.013-.091.26-.086.451-.081s.328.01.12-.081a7.168,7.168,0,0,0-1.043.018,1.331,1.331,0,0,1-.983-.133c.81.027,1.01-.162,1-.277l-.941-.082.179.122c-.82.048-.882-.02-1-.087-.1-.057-.241-.114-.913-.1l-.684.237a2.8,2.8,0,0,0,1.016.078c.518-.009,1-.018.855.165a7.727,7.727,0,0,1-.945-.046,5.444,5.444,0,0,0-1.219-.022l.667.068a3.291,3.291,0,0,1-2.033.19c-.7-.1-.185-.115-.206-.244-1.53-.034-1.981-.162-2.964-.183.2.244-1.743.027-.655.278a9.427,9.427,0,0,1,3.252.1c-.276.141.018.132.425.123a2.242,2.242,0,0,1,1.1.128c-1.229.006-1.171.29-1.366.48l-.872-.095c-.147-.176.3-.176.326-.358a15.3,15.3,0,0,1-3.435-.217c-.46.088-.316.264.225.277L23,27.507c.854-.248-1-.123-1.138-.227-.1.092-.243.193-.126.287-1.07-.128.048.156-1.013.156-1.071-.122-2.382-.216-3.572-.264a40.081,40.081,0,0,1-5.1-.007c-.7.115-.227.366-.984.406-.884,0,.66-.27-.654-.149l.126.048a6.56,6.56,0,0,0-.8,0,5.291,5.291,0,0,1-1.918-.143l.323.222L7.47,27.77c-.012.088-.3.17.1.23a11.815,11.815,0,0,1-2.582-.033l.568-.17a18.549,18.549,0,0,0-2.28-.03c-.533.016-1.073.033-1.695.01l.042.156-.864-.1c.167.126-.321.217-.757.178l1.968.336c.631-.094-.684-.189-.29-.345a4.143,4.143,0,0,1,1.9.061,3.834,3.834,0,0,1-.941-.074c-.171.216.616.209,1,.358-.175-.009-.4.016-.55.017a11.268,11.268,0,0,0,1.788.1c-.482-.071.035-.12.127-.172a4.155,4.155,0,0,0,1.985.172,8.479,8.479,0,0,1,2.429.059,8.479,8.479,0,0,1-2.429.059A4.154,4.154,0,0,0,5,28.764c-.093-.052-.61-.1-.127-.172a11.267,11.267,0,0,0-1.788.1c.152,0,.376.025.55.017-.385.149-1.172.142-1,.358A3.834,3.834,0,0,1,3.579,29a4.145,4.145,0,0,1-1.9.061c-.394-.156.921-.251.29-.345L0,29.049c.436-.038.924.052.757.178l.864-.1-.042.156c.621-.023,1.162-.007,1.695.01a18.525,18.525,0,0,0,2.28-.03l-.568-.17a11.807,11.807,0,0,1,2.582-.033c-.394.06-.11.142-.1.23l.673-.068-.323.222a5.291,5.291,0,0,1,1.918-.143,6.525,6.525,0,0,0,.8,0l-.126.048c1.315.121-.23-.149.654-.149.757.04.287.291.984.406a40.08,40.08,0,0,1,5.1-.007c1.189-.048,2.5-.142,3.572-.264,1.061,0-.057.284,1.013.156-.117.095.031.2.126.287.142-.1,1.992.021,1.138-.227l4.911.028c-.541.013-.684.189-.225.277a15.294,15.294,0,0,1,3.435-.217c-.027-.182-.473-.182-.326-.358l.872-.095c.195.19.138.474,1.366.48a2.242,2.242,0,0,1-1.1.128c-.407-.009-.7-.018-.425.123a9.427,9.427,0,0,1-3.252.1c-1.088.251.855.034.655.278.983-.021,1.434-.149,2.964-.183.021-.129-.5-.142.206-.244a3.291,3.291,0,0,1,2.033.19l-.667.068a5.437,5.437,0,0,0,1.219-.022,7.747,7.747,0,0,1,.945-.046c.144.183-.337.174-.855.165a2.8,2.8,0,0,0-1.016.078l.684.237c.672.012.813-.045.913-.1.118-.068.18-.135,1-.088l-.179.122L37.1,30.4c.012-.115-.188-.3-1-.277a1.331,1.331,0,0,1,.983-.132,7.176,7.176,0,0,0,1.043.018c.208-.091.072-.086-.12-.081s-.437.01-.451-.081c-.125-.163.756-.17,1.4-.2,1.052,0,.538.2.968.318-.2.027-1.014.048-.93-.054-1.3.19.571.379-.332.508a2.978,2.978,0,0,0,1.452-.166c-.258-.028.168-.187-.05-.254,1.018-.291,1.222-.113,1.555.065a2.053,2.053,0,0,0,1.213.213c-.35-.312,2.208-.44,1-.792l1.316-.095c-.446.217.735.169-.048.379h.606l-.909.251c.67.148,1.779.3,2.14.4.869-.088-.275-.2.735-.257-.353.108.275.2.723.2-.9-.081-.024-.3.55-.359.894,0,1.6.2,1.47.251l-.74.163c.259-.052.3-.02.381.013a.852.852,0,0,0,.452.028l.824-.461a2.882,2.882,0,0,1,.758.037,1.713,1.713,0,0,0,.408.045l-.9.128c.566-.023.646.053.711.129s.124.164.753.122l.317-.17c.193.022.3.073.21.128a9.781,9.781,0,0,1,1.09-.1l.084.109a3.5,3.5,0,0,1,1.751-.1,1,1,0,0,0-.694-.105,3.081,3.081,0,0,1-.785-.017c-.541-.2.855-.189,1.052-.216-.057.291,1.306.027,1.918.027l.882.217.242-.2c.134.22.537.151.988.082a3.092,3.092,0,0,1,.925-.048c-.356.115-.3.264.183.311-.661-.277,1.073-.338.876-.521,1.237.088-.293.345.075.535a2.282,2.282,0,0,1,.921-.047,1.394,1.394,0,0,0,.873-.088c-.9-.082.14-.176.326-.291,1.13.02-.185.115.613.216.469-.04,1.085-.25.356-.325a4.49,4.49,0,0,0,.894-.042,3.794,3.794,0,0,1,1.246,0c.3.176-1.384.081-.957.2,1.569.013.787-.42,2.245-.481-.624-.088-.024-.392.676-.493,1.617.074-.7.1-.087.318l.643-.034c.894.3-1.9.494-1.049.737l.706-.1c-.162.081-.383.236-.1.324.117-.139.758-.122,1.235-.1a3.252,3.252,0,0,0,.525,0c.075-.1-.091-.078-.245-.059-.136.017-.264.034-.209-.029a7.784,7.784,0,0,1,2.215-.23c-.627.122.236.237-.021.338.268.036.318-.011.387-.059s.172-.1.587-.049l-.089.1a58.7,58.7,0,0,0,9.233-.419,15.685,15.685,0,0,0,2.91.318c-.654-.061-.026-.183.341-.2l.708.2a10.959,10.959,0,0,0,2.806-.189l.222.148c.771.136.8-.115,1.1-.162l.505.149.11-.142c.768-.081,1.8-.048,1.695.182.308-.04.6-.088.218-.155a27.527,27.527,0,0,0,4.265.061c-.654-.061-.592-.129-.654-.271.111-.134.195-.108.342-.081a1.137,1.137,0,0,0,.528-.02c.015.088.645.182-.03.25a23.8,23.8,0,0,0,4.194.14c.86-.018,1.733-.036,2.573-.012.469-.04.326-.081.55-.142a15.087,15.087,0,0,0,2.8.086c.7-.02,1.393-.04,2.053,0-.356-.094.146-.385,1.028-.385.96-.2.383.277,1.255.4a8.2,8.2,0,0,1,1.584-.108l-.027.04a5.923,5.923,0,0,1,2-.074l-.1.007,1.653.128c.242-.189,1.554-.068,1.874-.243.068.027-.036.04.113.081l.042-.163,1.07.1a3.143,3.143,0,0,1-.586.169c1.142.115.383-.142.987-.23a1.891,1.891,0,0,1,1.142.115l-.789-.013c-.451.128.484.054.5.142a.554.554,0,0,0,.228-.078,1.2,1.2,0,0,1,.6-.071c.511.02,1.7-.034,1.554.142l1.27-.149a4.5,4.5,0,0,1-1.255-.189,4.816,4.816,0,0,1,1.229,0l-.3.047c.291-.046,1.341,0,.867-.137l.741.212a7.32,7.32,0,0,1,1.716-.155c.032.183-.487.372.708.419l1.034-.182c.541-.014.679.02.6.128a5.029,5.029,0,0,0,1.779-.173,3.619,3.619,0,0,1,1.58-.158c-.621.209-.108.23.55.291.029-.034.083-.109.359-.115a.425.425,0,0,0-.3.013,1.053,1.053,0,0,1-.591-.013c-.152-.129.6-.082.9-.129a12.769,12.769,0,0,0,3.561.253,28.471,28.471,0,0,1,2.853.072c-.085-.152.277-.145.671-.138a3.382,3.382,0,0,0,.7-.031c-.074.145.291.118.73.092a3.587,3.587,0,0,1,1.025.029l-.311-.27a4.876,4.876,0,0,0,1.492-.071,2.557,2.557,0,0,1,1.392,0c.724.075-.248.19-.55.237a5.336,5.336,0,0,0,1.765.031,4.233,4.233,0,0,1,1.693.05c.087-.108-.212-.277.657-.372a18.686,18.686,0,0,1,1.952.3,4.086,4.086,0,0,1,1.351-.041c-.054.068-.326.075-.523.109a14.214,14.214,0,0,0,2.669-.142,5.32,5.32,0,0,0,1.324.131l-.013.024c.192-.006.388-.009.581-.013s.388.007.581.013l-.013-.024a5.318,5.318,0,0,0,1.324-.131,14.214,14.214,0,0,0,2.669.142c-.2-.034-.47-.041-.523-.109a4.086,4.086,0,0,1,1.351.041,18.685,18.685,0,0,1,1.952-.3c.87.1.571.264.657.372a4.232,4.232,0,0,1,1.692-.05,5.337,5.337,0,0,0,1.765-.031c-.3-.047-1.273-.162-.55-.237a2.557,2.557,0,0,1,1.392,0,4.875,4.875,0,0,0,1.492.071l-.311.27a3.586,3.586,0,0,1,1.025-.029c.438.027.8.053.729-.092a3.374,3.374,0,0,0,.7.031c.394-.007.756-.014.671.138a28.467,28.467,0,0,1,2.853-.072,12.772,12.772,0,0,0,3.561-.253c.3.047,1.055,0,.9.129a1.054,1.054,0,0,1-.591.013.425.425,0,0,0-.3-.013c.276.006.329.081.359.115.658-.061,1.172-.082.55-.291a3.619,3.619,0,0,1,1.58.158,5.028,5.028,0,0,0,1.779.173c-.084-.108.054-.142.6-.128l1.034.182c1.2-.047.676-.236.708-.419a7.321,7.321,0,0,1,1.716.155l.741-.212c-.473.142.576.092.867.137l-.3-.047a4.815,4.815,0,0,1,1.229,0,4.5,4.5,0,0,1-1.255.189l1.27.149c-.146-.176,1.043-.122,1.554-.142a1.2,1.2,0,0,1,.6.071.557.557,0,0,0,.228.078c.018-.088.953-.014.5-.142l-.789.013a1.891,1.891,0,0,1,1.142-.115c.6.088-.156.345.987.23a3.144,3.144,0,0,1-.586-.169l1.07-.1.042.163c.149-.041.045-.054.113-.081.32.175,1.632.054,1.874.243l1.653-.128-.1-.007a5.924,5.924,0,0,1,2,.074l-.027-.04a8.2,8.2,0,0,1,1.584.108c.873-.122.3-.6,1.255-.4.881,0,1.383.291,1.028.385.66-.042,1.358-.022,2.053,0a15.079,15.079,0,0,0,2.8-.086c.224.061.081.1.55.142.84-.024,1.713-.006,2.573.012a23.8,23.8,0,0,0,4.194-.14c-.675-.068-.045-.162-.03-.25a1.134,1.134,0,0,0,.528.02c.147-.027.231-.053.342.081-.062.142,0,.21-.654.271a27.527,27.527,0,0,0,4.265-.061c-.386.067-.09.115.218.155-.1-.23.927-.263,1.695-.182l.11.142.506-.149c.3.047.329.3,1.1.162l.222-.148a10.957,10.957,0,0,0,2.806.189l.708-.2c.367.02,1,.142.341.2a15.688,15.688,0,0,0,2.911-.318,58.7,58.7,0,0,0,9.232.419l-.089-.1c.415-.053.512,0,.587.049s.12.095.387.059c-.257-.1.607-.216-.021-.338a7.785,7.785,0,0,1,2.215.23c.055.063-.073.046-.21.029-.154-.019-.319-.038-.245.059a3.251,3.251,0,0,0,.525,0c.477-.018,1.118-.035,1.235.1.284-.088.063-.243-.1-.324l.706.1c.848-.243-1.943-.433-1.049-.737l.643.034c.613-.217-1.7-.244-.087-.318.7.1,1.3.405.676.493,1.458.061.675.494,2.245.481.427-.122-1.255-.027-.957-.2a3.792,3.792,0,0,1,1.246,0,4.491,4.491,0,0,0,.894.042c-.729.075-.113.285.356.325.8-.1-.517-.2.613-.216.185.115,1.225.209.326.291a1.394,1.394,0,0,0,.872.088,2.28,2.28,0,0,1,.921.047c.368-.19-1.162-.447.075-.535-.2.183,1.536.244.876.521.487-.047.538-.2.182-.311a3.092,3.092,0,0,1,.925.048c.45.069.853.138.988-.082l.242.2.882-.217c.613,0,1.975.264,1.918-.027.2.027,1.593.013,1.052.216a3.081,3.081,0,0,1-.785.017,1,1,0,0,0-.694.105,3.5,3.5,0,0,1,1.751.1l.084-.109a9.775,9.775,0,0,1,1.09.1c-.095-.055.017-.106.21-.128l.317.17c.63.042.683-.04.753-.122s.145-.152.711-.129l-.9-.128a1.713,1.713,0,0,0,.407-.045,2.882,2.882,0,0,1,.758-.037l.824.461a.851.851,0,0,0,.452-.028c.078-.032.122-.065.381-.013l-.74-.163c-.128-.048.577-.251,1.47-.251.574.054,1.453.278.55.359.448.007,1.075-.088.723-.2,1.011.054-.134.169.735.257.362-.1,1.471-.251,2.14-.4l-.909-.251h.607c-.783-.21.4-.162-.048-.379l1.315.095c-1.2.352,1.354.48,1,.792a2.052,2.052,0,0,0,1.213-.213c.333-.178.537-.356,1.555-.065-.217.067.208.226-.05.254a2.979,2.979,0,0,0,1.452.166c-.9-.129.971-.318-.332-.508.084.1-.73.081-.93.054.43-.121-.083-.318.968-.318.646.027,1.527.034,1.4.2-.014.091-.26.086-.451.081s-.328-.01-.12.081a7.174,7.174,0,0,0,1.043-.018,1.332,1.332,0,0,1,.983.132c-.81-.027-1.01.162-1,.277l.942.082-.179-.122c.819-.048.881.02,1,.087.1.057.241.114.913.1l.684-.237A2.8,2.8,0,0,0,282,30.231c-.518.009-1,.019-.855-.165a7.745,7.745,0,0,1,.944.046,5.438,5.438,0,0,0,1.219.022l-.667-.068a3.291,3.291,0,0,1,2.033-.19c.7.1.185.115.206.244,1.53.034,1.981.162,2.964.183-.2-.244,1.743-.027.655-.278a9.427,9.427,0,0,1-3.252-.1c.276-.141-.018-.132-.425-.123a2.241,2.241,0,0,1-1.1-.128c1.228-.006,1.172-.29,1.366-.48l.872.095c.147.176-.3.176-.326.358a15.3,15.3,0,0,1,3.435.217c.46-.088.316-.264-.225-.277l4.911-.028c-.854.248,1,.123,1.138.227.1-.092.243-.193.126-.287,1.07.128-.048-.156,1.013-.156,1.071.122,2.382.216,3.572.264a40.08,40.08,0,0,1,5.1.007c.7-.115.227-.366.984-.406.884,0-.66.27.654.149l-.126-.048a6.525,6.525,0,0,0,.8,0,5.292,5.292,0,0,1,1.918.143l-.323-.222.673.068c.012-.088.3-.17-.1-.23a11.805,11.805,0,0,1,2.582.033l-.567.17a18.522,18.522,0,0,0,2.28.03c.533-.016,1.074-.033,1.695-.01l-.042-.156.864.1c-.167-.126.321-.217.757-.178l-1.968-.336c-.63.094.684.189.29.345a4.145,4.145,0,0,1-1.9-.061,3.833,3.833,0,0,1,.941.074c.171-.216-.616-.209-1-.358.175.009.4-.016.55-.017a11.265,11.265,0,0,0-1.788-.1c.482.071-.035.12-.127.172a4.155,4.155,0,0,0-1.986-.172,8.478,8.478,0,0,1-2.429-.059,8.479,8.479,0,0,1,2.429-.059,4.155,4.155,0,0,0,1.986-.172c.093.052.609.1.127.172a11.266,11.266,0,0,0,1.788-.1c-.152,0-.376-.025-.55-.017.385-.149,1.171-.142,1-.358a3.833,3.833,0,0,1-.941.074,4.143,4.143,0,0,1,1.9-.061c.394.156-.921.251-.29.345l1.968-.336c-.436.038-.924-.052-.757-.178l-.864.1.042-.156c-.621.023-1.162.007-1.695-.01a18.548,18.548,0,0,0-2.28.03l.567.17A11.813,11.813,0,0,1,309.18,28c.394-.06.11-.142.1-.23l-.673.068.323-.222a5.291,5.291,0,0,1-1.918.143,6.56,6.56,0,0,0-.8,0l.126-.048c-1.315-.121.23.149-.654.149-.757-.04-.287-.291-.984-.406a40.081,40.081,0,0,1-5.1.007c-1.189.048-2.5.142-3.572.264-1.061,0,.057-.284-1.013-.156.117-.095-.031-.2-.126-.287-.142.1-1.992-.021-1.138.227l-4.911-.028c.541-.013.684-.189.225-.277a15.3,15.3,0,0,1-3.435.217c.027.182.473.182.326.358l-.872.095c-.195-.19-.138-.474-1.366-.48a2.243,2.243,0,0,1,1.1-.128c.407.009.7.018.425-.123a9.427,9.427,0,0,1,3.252-.1c1.088-.251-.855-.034-.655-.278-.983.021-1.434.149-2.964.183-.021.129.5.142-.206.244a3.291,3.291,0,0,1-2.033-.19l.667-.068a5.436,5.436,0,0,0-1.219.022,7.727,7.727,0,0,1-.945.046c-.144-.183.337-.174.855-.165a2.8,2.8,0,0,0,1.016-.078l-.684-.237c-.672-.012-.813.045-.913.1-.119.068-.18.135-1,.087l.179-.122-.942.082c-.012.115.189.3,1,.277a1.332,1.332,0,0,1-.983.133,7.167,7.167,0,0,0-1.043-.018c-.208.092-.072.086.12.081s.437-.01.451.081c.125.163-.756.17-1.4.2-1.052,0-.538-.2-.968-.318.2-.027,1.014-.048.93.054,1.3-.19-.571-.379.332-.508a2.979,2.979,0,0,0-1.452.166c.258.028-.167.187.05.254-1.018.291-1.222.113-1.555-.065a2.052,2.052,0,0,0-1.213-.213c.35.312-2.208.44-1,.792l-1.315.095c.446-.217-.735-.169.048-.379h-.607l.909-.251c-.67-.148-1.779-.3-2.14-.4-.869.088.276.2-.735.257.353-.108-.275-.2-.723-.2.9.081.024.3-.55.359-.894,0-1.6-.2-1.47-.251l.74-.163c-.259.052-.3.02-.381-.013a.852.852,0,0,0-.452-.028l-.824.461a3.506,3.506,0,0,1-.959-.07q.121-.036.241-.076l.449-.064c-.105,0-.193,0-.268,0,2.206-.77,4.3-2.369,3.716-5.319-.813-4.077-3.689-6.2-9.5-7.082,0,0-3.015-.625-8.592.371a30.787,30.787,0,0,1,14.564.12c7.216,2.067,8.3,5.764,7.957,8.524a4.185,4.185,0,0,0,1.671-1.886s5,4.715,8.817,3.866c0,0-3.736-.178-9.31-6.119-7.413-7.9-20.925-6.038-20.925-6.038s.04-.028.121-.081a60.053,60.053,0,0,1,8.3-.191c-.043.013-.086.024-.129.038l.255-.032a28.89,28.89,0,0,1,11.5,2.848c4.2,2.049,7.518,4.453,15.176,6.95,10.868,3.544,15.962,1.591,13.418-1.894-1.6-2.226-5.726-4.4-10.039-5.644a3.076,3.076,0,0,0,2.029-1.415s1.91-4.76-8.321-6.587L284.028,6.9a25.361,25.361,0,0,1,6.208.846c2.565.813,8,3.7,15.693,3.4,0,0,4.268,2.11,6.851,8.982,0,0,1.831,5.168-3.307,5.042,0,0,1.053-.787.377-1.559,0,0-1.981-1.159-2.134.636,0,0,.155,1.518,2.469,1.391,0,0,3.7.345,3.662-3.937a14.261,14.261,0,0,0-2.9-6.922,15.74,15.74,0,0,0-3.857-3.9s4.168-1.321,5.273-3.434a1.38,1.38,0,0,0,.4-1.1,1.477,1.477,0,0,0-1.624-1.287,1.416,1.416,0,0,0-.058,2.824,6.645,6.645,0,0,1-4.937,2.195,41.118,41.118,0,0,0-21.53-4.337,161.419,161.419,0,0,0-17.354,2.18c.365-.7,1.933-3.1,6.44-3.812a8.356,8.356,0,0,0-4.109.021s.393-2.854-2.991-4.127c0,0,3.678,4.717-1.448,8.335" fill="none"/>
    </clipPath>
    <radialGradient id="radial-gradient-7" cx="0.506" cy="0.5" r="3.681" gradientTransform="matrix(0.096, 0, 0, -1.016, 0, 2.549)" xlink:href="#radial-gradient"/>
    <clipPath id="clip-path-8">
      <path id="Path_544" data-name="Path 544" d="M825.176,58.863h.553a2.19,2.19,0,0,1,1.954.815,3.9,3.9,0,0,1,.553,2.218,4.58,4.58,0,0,1-.175,1.381,2.11,2.11,0,0,1-.507.872,1.852,1.852,0,0,1-.792.464,3.64,3.64,0,0,1-1.032.136h-.553ZM821.361,57.8V58a.652.652,0,0,0,.055.317.35.35,0,0,0,.147.136,2.415,2.415,0,0,1,1.023.317.773.773,0,0,1,.267.656V70.769a1.278,1.278,0,0,1-.046.373.506.506,0,0,1-.175.249,1.22,1.22,0,0,1-.369.181q-.24.08-.627.17-.2.046-.2.43v.181a.532.532,0,0,0,.037.2q.534-.046,1.152-.079t1.281-.034q.94,0,1.742.034t1.336.079a2.573,2.573,0,0,0,.037-.407q0-.408-.258-.453a3.662,3.662,0,0,1-1.225-.351.787.787,0,0,1-.359-.736V65.88h.792l2.857,5.184a5.007,5.007,0,0,0,.756,1.053,1.105,1.105,0,0,0,.774.4q.258,0,.654.011t.792.034q.4.022.765.034t.571.034a.734.734,0,0,0,.037-.226v-.2a.523.523,0,0,0-.055-.283.247.247,0,0,0-.147-.1,4.742,4.742,0,0,1-.8-.34,1.964,1.964,0,0,1-.765-.815l-2.894-5.184a3.788,3.788,0,0,0,1.65-1.483,4.123,4.123,0,0,0,.6-2.184,4.6,4.6,0,0,0-.286-1.652,3.643,3.643,0,0,0-.829-1.29,3.7,3.7,0,0,0-1.318-.838,4.9,4.9,0,0,0-1.751-.294h-2.783q-.535,0-1.207-.034t-1.189-.079a.38.38,0,0,0-.037.181" transform="translate(-821.361 -57.618)" fill="none"/>
    </clipPath>
    <radialGradient id="radial-gradient-8" cx="0.5" cy="0.5" r="0.4" gradientTransform="matrix(1.27, 0, 0, -1.228, 2.372, 4.657)" xlink:href="#radial-gradient"/>
    <clipPath id="clip-path-9">
      <path id="Path_545" data-name="Path 545" d="M919.236,69.865a4.537,4.537,0,0,1-1.244-1.607,9.528,9.528,0,0,1-.774-2.456,16.849,16.849,0,0,1-.267-3.1,7.7,7.7,0,0,1,.277-2.15,5.566,5.566,0,0,1,.737-1.618,3.331,3.331,0,0,1,1.069-1.019,2.478,2.478,0,0,1,1.253-.351,2.872,2.872,0,0,1,1.778.577,4.444,4.444,0,0,1,1.272,1.584,8.784,8.784,0,0,1,.756,2.388,16.877,16.877,0,0,1,.249,2.988,8.388,8.388,0,0,1-.249,2.083,6,6,0,0,1-.7,1.7,3.7,3.7,0,0,1-1.078,1.143,2.463,2.463,0,0,1-1.4.419,2.646,2.646,0,0,1-1.677-.577m-1.023-12.9a6.405,6.405,0,0,0-1.981,1.641,8.05,8.05,0,0,0-1.336,2.422,8.831,8.831,0,0,0-.488,2.965,9.372,9.372,0,0,0,.479,3.067,7.8,7.8,0,0,0,1.309,2.411,5.89,5.89,0,0,0,1.972,1.584,5.49,5.49,0,0,0,2.469.566,5.163,5.163,0,0,0,2.433-.6,6.428,6.428,0,0,0,1.99-1.63,7.872,7.872,0,0,0,1.336-2.422,8.931,8.931,0,0,0,.488-2.977,9.4,9.4,0,0,0-.479-3.056,7.669,7.669,0,0,0-1.318-2.422,5.992,5.992,0,0,0-1.981-1.584,5.492,5.492,0,0,0-2.47-.566,5.106,5.106,0,0,0-2.423.6" transform="translate(-914.407 -56.363)" fill="none"/>
    </clipPath>
    <radialGradient id="radial-gradient-9" cx="0.5" cy="0.5" r="0.408" gradientTransform="matrix(1.223, 0, 0, -1.228, 2.06, 4.604)" xlink:href="#radial-gradient"/>
    <clipPath id="clip-path-10">
      <path id="Path_546" data-name="Path 546" d="M1022.389,57.709q-.47.023-.894.023-.442,0-1.023-.034t-.968-.079a3.2,3.2,0,0,0-.055.408q0,.385.24.43a2.538,2.538,0,0,1,.7.238.431.431,0,0,1,.2.4,1.778,1.778,0,0,1-.2.724l-2.119,4.89-2.156-5.252a1.26,1.26,0,0,1-.129-.475.38.38,0,0,1,.185-.328,1.707,1.707,0,0,1,.663-.192q.221-.045.221-.43V57.9a1.886,1.886,0,0,0-.037-.283q-.2.023-.525.045t-.691.034l-.728.023q-.359.012-.618.011-.756,0-1.391-.034t-1.041-.079l-.018.158a.479.479,0,0,0-.018.125V58q0,.43.221.453a2.413,2.413,0,0,1,.783.272,1.343,1.343,0,0,1,.507.656l2.931,6.859V70.7a1.259,1.259,0,0,1-.055.407.52.52,0,0,1-.2.26,1.492,1.492,0,0,1-.406.181q-.258.08-.645.17a.288.288,0,0,0-.157.1.564.564,0,0,0-.064.328v.1a.476.476,0,0,0,.018.125l.018.158q.239,0,.47-.011t.47-.034q.405-.046.838-.057t.765-.011q.313,0,.783.011t.912.057q.258.022.516.034t.553.011l.019-.158a.743.743,0,0,1,.009-.125.671.671,0,0,0,.009-.1.567.567,0,0,0-.065-.328.29.29,0,0,0-.157-.1,4.833,4.833,0,0,1-.654-.147,1.289,1.289,0,0,1-.4-.192.58.58,0,0,1-.2-.272,1.255,1.255,0,0,1-.055-.407V66.2l3.041-6.881a1.419,1.419,0,0,1,.442-.566,2.433,2.433,0,0,1,.922-.294q.221-.022.221-.43v-.147a1.2,1.2,0,0,0-.037-.26q-.479.068-.949.091" transform="translate(-1011.985 -57.618)" fill="none"/>
    </clipPath>
    <radialGradient id="radial-gradient-10" cx="0.5" cy="0.5" r="0.395" gradientTransform="matrix(1.31, 0, 0, -1.228, 3.472, 4.685)" xlink:href="#radial-gradient"/>
    <clipPath id="clip-path-11">
      <path id="Path_547" data-name="Path 547" d="M1101.781,60.143l1.567,5.093h-3.17Zm.24-3.4-4.442,13.038a1.068,1.068,0,0,1-.4.543,2.843,2.843,0,0,1-.82.294q-.24.023-.24.453v.181a.531.531,0,0,0,.037.2q.5-.068.9-.091t.774-.023q.534,0,1.087.034t1.05.079a2.471,2.471,0,0,0,.037-.385q0-.385-.258-.43a1.916,1.916,0,0,1-.783-.272.5.5,0,0,1-.194-.407,1.649,1.649,0,0,1,.018-.2.815.815,0,0,1,.074-.249l.958-3.146h3.87l.977,3.237a1.348,1.348,0,0,1,.055.34.489.489,0,0,1-.23.441,2.384,2.384,0,0,1-.709.26.269.269,0,0,0-.138.125.576.576,0,0,0-.065.306v.181a.531.531,0,0,0,.037.2q.258-.023.636-.034t.765-.034q.387-.023.756-.034t.627-.011q.5,0,1.069.034t1.161.079a2.545,2.545,0,0,0,.037-.407q0-.385-.276-.453a2.292,2.292,0,0,1-.682-.238.864.864,0,0,1-.424-.509l-4.442-13.446q-.111-.022-.2-.034a1.512,1.512,0,0,0-.184-.011q-.295,0-.442.385" transform="translate(-1096.123 -56.363)" fill="none"/>
    </clipPath>
    <radialGradient id="radial-gradient-11" cx="0.5" cy="0.5" r="0.411" gradientTransform="matrix(1.203, 0, 0, -1.228, 2.236, 4.653)" xlink:href="#radial-gradient"/>
    <clipPath id="clip-path-12">
      <path id="Path_548" data-name="Path 548" d="M1199.357,57.663q-.36.023-.719.034l-.691.023q-.332.012-.59.011-.516,0-1.18-.034t-1.253-.079a.792.792,0,0,0-.037.249v.2c0,.212.061.34.184.385a4.232,4.232,0,0,1,.617.147.87.87,0,0,1,.341.192.566.566,0,0,1,.147.26,1.585,1.585,0,0,1,.037.373V70.769a.676.676,0,0,1-.3.634,3.673,3.673,0,0,1-1,.34q-.185.023-.184.362v.215a.635.635,0,0,0,.037.238q.553-.046,1.244-.079t1.226-.034h4.184q.239,0,.562.023t.636.034q.313.011.58.034c.178.015.316.023.415.023a.376.376,0,0,0,.212-.068c.067-.045.108-.158.12-.34q.092-.815.212-1.664t.267-1.573l-.258-.136a.494.494,0,0,0-.221-.068.255.255,0,0,0-.277.181,9.464,9.464,0,0,1-.415,1.12,3.09,3.09,0,0,1-.47.758,1.453,1.453,0,0,1-.6.419,2.337,2.337,0,0,1-.8.125h-.7a5.981,5.981,0,0,1-1.641-.158.626.626,0,0,1-.5-.634V59.474a.806.806,0,0,1,.267-.668,2.512,2.512,0,0,1,1.06-.351c.123-.045.184-.173.184-.385,0-.045,0-.113-.009-.2s-.016-.173-.028-.249q-.3.023-.654.045" transform="translate(-1194.722 -57.618)" fill="none"/>
    </clipPath>
    <radialGradient id="radial-gradient-12" cx="0.5" cy="0.5" r="0.368" gradientTransform="matrix(1.541, 0, 0, -1.228, 8.414, 4.678)" xlink:href="#radial-gradient"/>
    <clipPath id="clip-path-13">
      <path id="Path_549" data-name="Path 549" d="M1294.747,57.7q-.664.034-1.18.034-.535,0-1.207-.034t-1.262-.079a.8.8,0,0,0-.037.249v.2c0,.212.061.34.184.385a4.245,4.245,0,0,1,.617.147.873.873,0,0,1,.341.192.568.568,0,0,1,.147.26,1.579,1.579,0,0,1,.037.373V71.494a11.912,11.912,0,0,1-.083,1.46,6.439,6.439,0,0,1-.286,1.268,6.3,6.3,0,0,1-.535,1.166,8.579,8.579,0,0,1-.848,1.177.461.461,0,0,0,.009.566,3.57,3.57,0,0,0,.249.294,21.716,21.716,0,0,0,1.871-1.754,6.679,6.679,0,0,0,1.17-1.709,7.492,7.492,0,0,0,.6-2.026,17.854,17.854,0,0,0,.175-2.705v-9.8a2.1,2.1,0,0,1,.028-.373.474.474,0,0,1,.148-.26.964.964,0,0,1,.35-.192,4.223,4.223,0,0,1,.617-.147c.123-.045.184-.173.184-.385,0-.045,0-.113-.009-.2s-.016-.173-.028-.249q-.59.046-1.253.079" transform="translate(-1290.545 -57.618)" fill="none"/>
    </clipPath>
    <radialGradient id="radial-gradient-13" cx="0.5" cy="0.5" r="0.304" gradientTransform="matrix(3.606, 0, 0, -1.228, 77.271, 3.529)" xlink:href="#radial-gradient"/>
    <clipPath id="clip-path-14">
      <path id="Path_550" data-name="Path 550" d="M1338.856,60.143l1.567,5.093h-3.17Zm.24-3.4-4.442,13.038a1.066,1.066,0,0,1-.4.543,2.845,2.845,0,0,1-.82.294q-.24.023-.24.453v.181a.531.531,0,0,0,.037.2q.5-.068.9-.091t.774-.023q.534,0,1.087.034t1.051.079a2.469,2.469,0,0,0,.037-.385q0-.385-.258-.43a1.916,1.916,0,0,1-.783-.272.5.5,0,0,1-.193-.407,1.649,1.649,0,0,1,.018-.2.808.808,0,0,1,.074-.249l.958-3.146h3.87l.977,3.237a1.338,1.338,0,0,1,.055.34.489.489,0,0,1-.23.441,2.382,2.382,0,0,1-.709.26.27.27,0,0,0-.138.125.577.577,0,0,0-.064.306v.181a.531.531,0,0,0,.037.2q.258-.023.636-.034t.765-.034q.387-.023.756-.034t.627-.011q.5,0,1.069.034t1.161.079a2.558,2.558,0,0,0,.037-.407q0-.385-.276-.453a2.291,2.291,0,0,1-.682-.238.863.863,0,0,1-.424-.509l-4.442-13.446c-.074-.015-.141-.026-.2-.034a1.507,1.507,0,0,0-.184-.011q-.295,0-.443.385" transform="translate(-1333.198 -56.363)" fill="none"/>
    </clipPath>
    <radialGradient id="radial-gradient-14" cx="0.5" cy="0.5" r="0.411" gradientTransform="matrix(1.203, 0, 0, -1.228, 2.72, 4.653)" xlink:href="#radial-gradient"/>
    <clipPath id="clip-path-15">
      <path id="Path_551" data-name="Path 551" d="M1435.612,58.863h.553a2.161,2.161,0,0,1,1.963.838,4.312,4.312,0,0,1,.544,2.354,3.323,3.323,0,0,1-.691,2.377,2.434,2.434,0,0,1-1.815.7h-.553ZM1431.8,57.8V58a.65.65,0,0,0,.055.317.349.349,0,0,0,.147.136,2.417,2.417,0,0,1,1.023.317.774.774,0,0,1,.267.656V70.769a1.274,1.274,0,0,1-.046.373.5.5,0,0,1-.175.249,1.214,1.214,0,0,1-.369.181q-.24.08-.626.17-.2.046-.2.43v.181a.534.534,0,0,0,.037.2q.534-.046,1.152-.079t1.281-.034q.94,0,1.741.034t1.336.079a2.573,2.573,0,0,0,.037-.407q0-.408-.258-.453a3.663,3.663,0,0,1-1.226-.351.787.787,0,0,1-.359-.736V66.265h1.4a4.041,4.041,0,0,0,3.087-1.324,4,4,0,0,0,.82-1.4,5.146,5.146,0,0,0,.277-1.687,4.059,4.059,0,0,0-1.106-3.033,4.2,4.2,0,0,0-3.078-1.087h-2.783q-.535,0-1.207-.034t-1.189-.079a.38.38,0,0,0-.037.181" transform="translate(-1431.797 -57.618)" fill="none"/>
    </clipPath>
    <radialGradient id="radial-gradient-15" cx="0.5" cy="0.5" r="0.364" gradientTransform="matrix(1.589, 0, 0, -1.228, 11.328, 4.678)" xlink:href="#radial-gradient"/>
    <clipPath id="clip-path-16">
      <path id="Path_552" data-name="Path 552" d="M1510.637,60.143l1.567,5.093h-3.17Zm.24-3.4-4.442,13.038a1.067,1.067,0,0,1-.4.543,2.844,2.844,0,0,1-.82.294q-.24.023-.24.453v.181a.529.529,0,0,0,.037.2q.5-.068.9-.091t.774-.023q.534,0,1.087.034t1.051.079a2.471,2.471,0,0,0,.037-.385q0-.385-.258-.43a1.916,1.916,0,0,1-.783-.272.5.5,0,0,1-.194-.407,1.654,1.654,0,0,1,.018-.2.8.8,0,0,1,.074-.249l.958-3.146h3.87l.977,3.237a1.344,1.344,0,0,1,.055.34.489.489,0,0,1-.231.441,2.38,2.38,0,0,1-.709.26.27.27,0,0,0-.138.125.578.578,0,0,0-.065.306v.181a.529.529,0,0,0,.037.2q.258-.023.636-.034t.765-.034q.387-.023.756-.034t.627-.011q.5,0,1.069.034t1.161.079a2.572,2.572,0,0,0,.037-.407q0-.385-.276-.453a2.289,2.289,0,0,1-.682-.238.863.863,0,0,1-.424-.509l-4.442-13.446q-.111-.022-.2-.034a1.509,1.509,0,0,0-.184-.011q-.295,0-.442.385" transform="translate(-1504.979 -56.363)" fill="none"/>
    </clipPath>
    <radialGradient id="radial-gradient-16" cx="0.5" cy="0.5" r="0.411" gradientTransform="matrix(1.203, 0, 0, -1.228, 3.071, 4.653)" xlink:href="#radial-gradient"/>
    <clipPath id="clip-path-17">
      <path id="Path_553" data-name="Path 553" d="M1614.729,57.709q-.424.023-1.014.023t-1.032-.023q-.442-.022-.9-.091a.72.72,0,0,0-.037.226v.181q0,.362.24.43a2.384,2.384,0,0,1,.977.317.816.816,0,0,1,.277.7V67.51L1607.117,58a.655.655,0,0,0-.295-.215,2.7,2.7,0,0,0-.7-.057c-.172,0-.4,0-.673-.011s-.55-.019-.82-.034q-.24-.023-.479-.034t-.5-.034l-.019.181a.483.483,0,0,0-.018.125v.1q0,.362.221.43a1.766,1.766,0,0,1,.875.306.75.75,0,0,1,.193.555V70.769a.823.823,0,0,1-.221.634,1.968,1.968,0,0,1-.885.34.271.271,0,0,0-.157.113.569.569,0,0,0-.065.317v.181a.534.534,0,0,0,.037.2q.405-.046.894-.079t1.023-.034q.534,0,.94.034t.866.079a2.47,2.47,0,0,0,.037-.385.567.567,0,0,0-.065-.328.289.289,0,0,0-.156-.1q-.387-.09-.618-.17a1.087,1.087,0,0,1-.35-.181.418.418,0,0,1-.147-.249,2.056,2.056,0,0,1-.028-.373V60.991l7.261,11.318a.986.986,0,0,0,.313.328.592.592,0,0,0,.277.079c.037,0,.114,0,.23-.011a1.248,1.248,0,0,0,.249-.034V59.429a.856.856,0,0,1,.221-.656,1.744,1.744,0,0,1,.83-.317q.221-.045.221-.43c0-.045,0-.105-.009-.181s-.015-.151-.028-.226a8.034,8.034,0,0,1-.848.091" transform="translate(-1603.579 -57.618)" fill="none"/>
    </clipPath>
    <radialGradient id="radial-gradient-17" cx="0.5" cy="0.5" r="0.403" gradientTransform="matrix(1.255, 0, 0, -1.228, 4.279, 4.629)" xlink:href="#radial-gradient"/>
  </defs>
  <g id="Group_24842" data-name="Group 24842" transform="translate(-255.327 -17)">
    <g id="Group_367" data-name="Group 367" transform="translate(255.327 25.676)">
      <g id="Group_334" data-name="Group 334" transform="translate(10.909 33.015)">
        <g id="Group_333" data-name="Group 333" clip-path="url(#clip-path)">
          <rect id="Rectangle_1564" data-name="Rectangle 1564" width="145.763" height="5.621" transform="translate(0 0)" fill="url(#radial-gradient)"/>
        </g>
      </g>
      <g id="Group_336" data-name="Group 336" transform="translate(96.775 34.404)">
        <g id="Group_335" data-name="Group 335" clip-path="url(#clip-path-2)">
          <rect id="Rectangle_1565" data-name="Rectangle 1565" width="0.532" height="0.016" transform="translate(0 0)" fill="url(#radial-gradient-2)"/>
        </g>
      </g>
      <g id="Group_338" data-name="Group 338" transform="translate(54.679 33.134)">
        <g id="Group_337" data-name="Group 337" clip-path="url(#clip-path-3)">
          <rect id="Rectangle_1566" data-name="Rectangle 1566" width="0.679" height="0.071" fill="url(#radial-gradient-3)"/>
        </g>
      </g>
      <g id="Group_340" data-name="Group 340" transform="translate(160.722 33.015)">
        <g id="Group_339" data-name="Group 339" clip-path="url(#clip-path-4)">
          <rect id="Rectangle_1567" data-name="Rectangle 1567" width="145.763" height="5.621" transform="translate(-0.645 0)" fill="url(#radial-gradient-4)"/>
        </g>
      </g>
      <g id="Group_342" data-name="Group 342" transform="translate(219.442 34.404)">
        <g id="Group_341" data-name="Group 341" clip-path="url(#clip-path-5)">
          <rect id="Rectangle_1568" data-name="Rectangle 1568" width="0.532" height="0.016" transform="translate(0 0)" fill="url(#radial-gradient-5)"/>
        </g>
      </g>
      <g id="Group_344" data-name="Group 344" transform="translate(261.558 33.134)">
        <g id="Group_343" data-name="Group 343" clip-path="url(#clip-path-6)">
          <rect id="Rectangle_1569" data-name="Rectangle 1569" width="0.679" height="0.071" transform="translate(-0.167)" fill="url(#radial-gradient-6)"/>
        </g>
      </g>
      <g id="Group_346" data-name="Group 346">
        <g id="Group_345" data-name="Group 345" clip-path="url(#clip-path-7)">
          <rect id="Rectangle_1570" data-name="Rectangle 1570" width="316.749" height="30.559" fill="url(#radial-gradient-7)"/>
        </g>
      </g>
      <g id="Group_348" data-name="Group 348" transform="translate(103.63 7.27)">
        <g id="Group_347" data-name="Group 347" clip-path="url(#clip-path-8)">
          <rect id="Rectangle_1571" data-name="Rectangle 1571" width="11.814" height="15.008" transform="translate(0 0)" fill="url(#radial-gradient-8)"/>
        </g>
      </g>
      <g id="Group_350" data-name="Group 350" transform="translate(115.37 7.111)">
        <g id="Group_349" data-name="Group 349" clip-path="url(#clip-path-9)">
          <rect id="Rectangle_1572" data-name="Rectangle 1572" width="12.477" height="15.256" transform="translate(0 0)" fill="url(#radial-gradient-9)"/>
        </g>
      </g>
      <g id="Group_352" data-name="Group 352" transform="translate(127.681 7.27)">
        <g id="Group_351" data-name="Group 351" clip-path="url(#clip-path-10)">
          <rect id="Rectangle_1573" data-name="Rectangle 1573" width="11.39" height="14.917" transform="translate(0 0)" fill="url(#radial-gradient-10)"/>
        </g>
      </g>
      <g id="Group_354" data-name="Group 354" transform="translate(138.296 7.111)">
        <g id="Group_353" data-name="Group 353" clip-path="url(#clip-path-11)">
          <rect id="Rectangle_1574" data-name="Rectangle 1574" width="12.551" height="15.098" transform="translate(0 0)" fill="url(#radial-gradient-11)"/>
        </g>
      </g>
      <g id="Group_356" data-name="Group 356" transform="translate(150.737 7.27)">
        <g id="Group_355" data-name="Group 355" clip-path="url(#clip-path-12)">
          <rect id="Rectangle_1575" data-name="Rectangle 1575" width="9.694" height="14.94" transform="translate(0 0)" fill="url(#radial-gradient-12)"/>
        </g>
      </g>
      <g id="Group_358" data-name="Group 358" transform="translate(162.826 7.27)">
        <g id="Group_357" data-name="Group 357" clip-path="url(#clip-path-13)">
          <rect id="Rectangle_1576" data-name="Rectangle 1576" width="5.492" height="19.806" transform="translate(0 0)" fill="url(#radial-gradient-13)"/>
        </g>
      </g>
      <g id="Group_360" data-name="Group 360" transform="translate(168.208 7.111)">
        <g id="Group_359" data-name="Group 359" clip-path="url(#clip-path-14)">
          <rect id="Rectangle_1577" data-name="Rectangle 1577" width="12.551" height="15.098" transform="translate(0 0)" fill="url(#radial-gradient-14)"/>
        </g>
      </g>
      <g id="Group_362" data-name="Group 362" transform="translate(180.648 7.27)">
        <g id="Group_361" data-name="Group 361" clip-path="url(#clip-path-15)">
          <rect id="Rectangle_1578" data-name="Rectangle 1578" width="9.399" height="14.94" transform="translate(0 0)" fill="url(#radial-gradient-15)"/>
        </g>
      </g>
      <g id="Group_364" data-name="Group 364" transform="translate(189.881 7.111)">
        <g id="Group_363" data-name="Group 363" clip-path="url(#clip-path-16)">
          <rect id="Rectangle_1579" data-name="Rectangle 1579" width="12.551" height="15.098" transform="translate(0 0)" fill="url(#radial-gradient-16)"/>
        </g>
      </g>
      <g id="Group_366" data-name="Group 366" transform="translate(202.322 7.27)">
        <g id="Group_365" data-name="Group 365" clip-path="url(#clip-path-17)">
          <rect id="Rectangle_1580" data-name="Rectangle 1580" width="12.035" height="15.098" transform="translate(0 0)" fill="url(#radial-gradient-17)"/>
        </g>
      </g>
    </g>
    <text id="" transform="translate(351.701 27)" fill="#fff" font-size="9" font-family="YuGothicUI-Regular, Yu Gothic UI"><tspan x="0" y="0"></tspan></text>
  </g>
</svg>
