<svg xmlns="http://www.w3.org/2000/svg" width="57.25" height="57.25" viewBox="0 0 57.25 57.25">
  <path id="headset-solid" d="M21.368,25.047a3.58,3.58,0,0,0-3.578-3.583l-1.688,0a7.159,7.159,0,0,0-7.156,7.165v5.344A7.166,7.166,0,0,0,16.1,41.148h1.789a3.583,3.583,0,0,0,3.578-3.585ZM28.625,0C12.624,0,.512,13.317,0,28.625L0,33.1a2.661,2.661,0,0,0,2.583,2.684A2.837,2.837,0,0,0,5.367,33.1V28.625a23.258,23.258,0,0,1,46.516,0v16.1A4.473,4.473,0,0,1,47.41,49.2H35.032a5.334,5.334,0,0,0-4.618-2.684H27.037a5.5,5.5,0,0,0-5.464,4.3,5.353,5.353,0,0,0,5.163,6.431h3.679a5.343,5.343,0,0,0,4.622-2.684H47.41a9.84,9.84,0,0,0,9.84-9.84v-16.1C56.736,13.317,44.626,0,28.625,0ZM41.148,41.148A7.163,7.163,0,0,0,48.3,33.978V28.636a7.165,7.165,0,0,0-7.156-7.167H39.359a3.581,3.581,0,0,0-3.578,3.583V37.559a3.577,3.577,0,0,0,3.578,3.589Z" fill="#b169b8"/>
</svg>
