<svg xmlns="http://www.w3.org/2000/svg" width="22.222" height="17.781" viewBox="0 0 22.222 17.781">
  <path id="user-pen-solid" d="M7.779,8.89A4.445,4.445,0,1,0,3.334,4.445,4.445,4.445,0,0,0,7.779,8.89ZM6.192,10.557A6.191,6.191,0,0,0,0,16.749a1.032,1.032,0,0,0,1.031,1.031H11.21a1.689,1.689,0,0,1-.049-.965l.521-2.087a2.205,2.205,0,0,1,.583-1.031l1.4-1.4a6.17,6.17,0,0,0-4.3-1.74ZM21.316,8.185a1.392,1.392,0,0,0-1.966,0L18.329,9.206l2.466,2.466,1.021-1.021a1.392,1.392,0,0,0,0-1.966l-.5-.5Zm-8.262,6.3a1.1,1.1,0,0,0-.292.517l-.521,2.087a.555.555,0,0,0,.674.674L15,17.239a1.117,1.117,0,0,0,.517-.292l4.487-4.49L17.541,9.991Z" fill="#fff"/>
</svg>
