<svg xmlns="http://www.w3.org/2000/svg" width="21.407" height="18.733" viewBox="0 0 21.407 18.733">
  <path id="comment-dollar-solid" d="M10.652,49.391c5.911,0,10.7-3.892,10.7-8.7S16.564,32,10.652,32-.05,35.892-.05,40.7A7.619,7.619,0,0,0,1.944,45.75a6.086,6.086,0,0,1-.895,2.63,7.542,7.542,0,0,1-.635.9c-.088.1-.155.184-.2.238-.025.025-.042.046-.054.059l-.013.013h0A.662.662,0,0,0,0,50.319a.669.669,0,0,0,.619.414,8.831,8.831,0,0,0,3.411-.807A12.527,12.527,0,0,0,6.3,48.647a12.8,12.8,0,0,0,4.352.748Zm.836-13.043v.581a8.109,8.109,0,0,1,.882.2.837.837,0,1,1-.431,1.618,5.739,5.739,0,0,0-1.3-.217,1.831,1.831,0,0,0-.9.209.417.417,0,0,0-.259.389c0,.075,0,.146.222.28a5.505,5.505,0,0,0,1.183.439l.029.008a6.391,6.391,0,0,1,1.551.627,2.035,2.035,0,0,1,1.028,1.739A2.121,2.121,0,0,1,12.454,44.1a3,3,0,0,1-.97.376v.569a.836.836,0,0,1-1.672,0v-.61a9.487,9.487,0,0,1-1.179-.351h0l-.255-.088a.836.836,0,1,1,.531-1.584c.1.033.2.071.3.1a5.2,5.2,0,0,0,1.467.355,1.643,1.643,0,0,0,.895-.2.452.452,0,0,0,.247-.439c0-.121-.033-.209-.247-.343A5.052,5.052,0,0,0,10.4,41.44l-.071-.021a6.739,6.739,0,0,1-1.488-.585,1.959,1.959,0,0,1-1.033-1.7A2.074,2.074,0,0,1,8.888,37.3a3.136,3.136,0,0,1,.928-.355v-.594a.836.836,0,1,1,1.672,0Z" transform="translate(0.052 -32)" fill="#fff"/>
</svg>
