<svg xmlns="http://www.w3.org/2000/svg" width="20.738" height="20.738" viewBox="0 0 20.738 20.738">
  <path id="face-grin-wide-regular" d="M18.794,10.369a8.425,8.425,0,1,0-8.425,8.425,8.425,8.425,0,0,0,8.425-8.425ZM0,10.369A10.369,10.369,0,1,1,10.369,20.738,10.369,10.369,0,0,1,0,10.369Zm14.156,2.122c.757-.178,1.454.486,1.033,1.138a5.81,5.81,0,0,1-9.648,0c-.421-.652.275-1.316,1.033-1.138a16.619,16.619,0,0,0,3.791.425A16.619,16.619,0,0,0,14.156,12.492ZM9.073,7.777c0,1.43-.579,2.592-1.3,2.592s-1.3-1.162-1.3-2.592.579-2.592,1.3-2.592S9.073,6.347,9.073,7.777Zm3.888,2.592c-.717,0-1.3-1.162-1.3-2.592s.579-2.592,1.3-2.592,1.3,1.162,1.3,2.592S13.678,10.369,12.961,10.369Z" fill="#fff"/>
</svg>
