<svg xmlns="http://www.w3.org/2000/svg" width="81.534" height="57.074" viewBox="0 0 81.534 57.074">
  <path id="people-line-solid" d="M45.863,37.1a5.1,5.1,0,1,1-5.1-5.1A5.1,5.1,0,0,1,45.863,37.1ZM13.249,49.326a5.1,5.1,0,1,1,5.1,5.1A5.094,5.094,0,0,1,13.249,49.326ZM77.457,80.92a4.077,4.077,0,0,1,0,8.153H4.077a4.077,4.077,0,1,1,0-8.153ZM58.093,49.326a5.1,5.1,0,1,1,5.1,5.1A5.094,5.094,0,0,1,58.093,49.326ZM25.479,72.767A4.072,4.072,0,0,1,21.4,76.844H15.288a4.072,4.072,0,0,1-4.077-4.077v-4.9L7.788,74.219a3.059,3.059,0,0,1-5.384-2.9L7.23,62.359a11.218,11.218,0,0,1,9.867-5.9h2.5a11.224,11.224,0,0,1,5.784,1.605l4.268-7.937a11.237,11.237,0,0,1,9.873-5.9h2.5a11.237,11.237,0,0,1,9.873,5.9l4.268,7.937A11.224,11.224,0,0,1,61.94,56.46h2.5a11.237,11.237,0,0,1,9.873,5.9l4.816,8.956a3.055,3.055,0,1,1-5.376,2.9l-3.427-6.357v4.9a4.072,4.072,0,0,1-4.077,4.077H60.131a4.072,4.072,0,0,1-4.077-4.077v-4.9l-3.427,6.357a3.059,3.059,0,0,1-4.14,1.236,2.965,2.965,0,0,1-1.236-4.14l4.625-8.6a2.6,2.6,0,0,1-.548-.726L47.9,55.632v6.943a4.072,4.072,0,0,1-4.077,4.077h-6.23a4.147,4.147,0,0,1-4.077-4.077V55.632l-3.312,6.357c-.255.28-.331.522-.548.726l4.625,8.6a3.055,3.055,0,0,1-5.376,2.9l-3.542-6.357Z" transform="translate(0 -32)" fill="#b169b8"/>
</svg>
